BenchTwelve-Reg-TF.ufo
<glyph name="exclam" format="1">
  <advance width="652"/>
  <unicode hex="0021"/>
  <outline>
    <contour>
      <point x="320" y="432" type="curve" smooth="yes"/>
      <point x="325" y="432" type="line" smooth="yes"/>
      <point x="368" y="432"/>
      <point x="369" y="456"/>
      <point x="372" y="499" type="curve" smooth="yes"/>
      <point x="433" y="1343" type="line" smooth="yes"/>
      <point x="436" y="1386"/>
      <point x="409" y="1438"/>
      <point x="366" y="1438" type="curve" smooth="yes"/>
      <point x="272" y="1438" type="line" smooth="yes"/>
      <point x="229" y="1438"/>
      <point x="202" y="1414"/>
      <point x="205" y="1371" type="curve" smooth="yes"/>
      <point x="273" y="499" type="line" smooth="yes"/>
      <point x="276" y="456"/>
      <point x="277" y="432"/>
    </contour>
    <contour>
      <point x="319" y="0" type="curve" smooth="yes"/>
      <point x="433" y="0"/>
      <point x="457" y="72"/>
      <point x="457" y="119" type="curve" smooth="yes"/>
      <point x="457" y="166"/>
      <point x="417" y="231"/>
      <point x="319" y="231" type="curve" smooth="yes"/>
      <point x="229" y="231"/>
      <point x="188" y="170"/>
      <point x="188" y="119" type="curve" smooth="yes"/>
      <point x="188" y="71"/>
      <point x="220" y="0"/>
    </contour>
  </outline>
</glyph>
<glyph name="quotedbl" format="1">
  <advance width="652"/>
  <unicode hex="0022"/>
  <outline>
    <contour>
      <point x="320" y="772" type="curve" smooth="yes"/>
      <point x="325" y="772" type="line" smooth="yes"/>
      <point x="368" y="772"/>
      <point x="367" y="796"/>
      <point x="372" y="839" type="curve" smooth="yes"/>
      <point x="433" y="1350" type="line" smooth="yes"/>
      <point x="438" y="1393"/>
      <point x="409" y="1438"/>
      <point x="366" y="1438" type="curve" smooth="yes"/>
      <point x="272" y="1438" type="line" smooth="yes"/>
      <point x="229" y="1438"/>
      <point x="199" y="1394"/>
      <point x="205" y="1351" type="curve" smooth="yes"/>
      <point x="273" y="839" type="line" smooth="yes"/>
      <point x="279" y="796"/>
      <point x="277" y="772"/>
    </contour>
    <contour>
      <point x="664" y="772" type="curve" smooth="yes"/>
      <point x="669" y="772" type="line" smooth="yes"/>
      <point x="712" y="772"/>
      <point x="711" y="796"/>
      <point x="716" y="839" type="curve" smooth="yes"/>
      <point x="777" y="1350" type="line" smooth="yes"/>
      <point x="782" y="1393"/>
      <point x="753" y="1438"/>
      <point x="710" y="1438" type="curve" smooth="yes"/>
      <point x="616" y="1438" type="line" smooth="yes"/>
      <point x="573" y="1438"/>
      <point x="543" y="1394"/>
      <point x="549" y="1351" type="curve" smooth="yes"/>
      <point x="617" y="839" type="line" smooth="yes"/>
      <point x="623" y="796"/>
      <point x="621" y="772"/>
    </contour>
  </outline>
</glyph>
<glyph name="numbersign" format="1">
  <advance width="1557.56077753"/>
  <unicode hex="0023"/>
  <outline>
    <contour>
      <point x="156" y="-205" type="curve" smooth="yes"/>
      <point x="261" y="-205" type="line" smooth="yes"/>
      <point x="283" y="-205"/>
      <point x="303" y="-191"/>
      <point x="311" y="-170" type="curve" smooth="yes"/>
      <point x="448" y="417" type="line"/>
      <point x="924" y="417" type="line"/>
      <point x="787" y="-170" type="line" smooth="yes"/>
      <point x="781" y="-187"/>
      <point x="793" y="-205"/>
      <point x="811" y="-205" type="curve" smooth="yes"/>
      <point x="916" y="-205" type="line" smooth="yes"/>
      <point x="938" y="-205"/>
      <point x="958" y="-191"/>
      <point x="966" y="-170" type="curve" smooth="yes"/>
      <point x="1103" y="417" type="line"/>
      <point x="1352" y="417" type="line" smooth="yes"/>
      <point x="1395" y="417"/>
      <point x="1419" y="431"/>
      <point x="1419" y="474" type="curve" smooth="yes"/>
      <point x="1419" y="530" type="line" smooth="yes"/>
      <point x="1419" y="573"/>
      <point x="1395" y="587"/>
      <point x="1352" y="587" type="curve" smooth="yes"/>
      <point x="1143" y="587" type="line"/>
      <point x="1201" y="834" type="line"/>
      <point x="1427" y="834" type="line" smooth="yes"/>
      <point x="1470" y="834"/>
      <point x="1494" y="848"/>
      <point x="1494" y="891" type="curve" smooth="yes"/>
      <point x="1494" y="949" type="line" smooth="yes"/>
      <point x="1494" y="992"/>
      <point x="1470" y="1006"/>
      <point x="1427" y="1006" type="curve" smooth="yes"/>
      <point x="1241" y="1006" type="line"/>
      <point x="1383" y="1612" type="line" smooth="yes"/>
      <point x="1389" y="1629"/>
      <point x="1377" y="1647"/>
      <point x="1359" y="1647" type="curve" smooth="yes"/>
      <point x="1254" y="1647" type="line" smooth="yes"/>
      <point x="1232" y="1647"/>
      <point x="1212" y="1633"/>
      <point x="1204" y="1612" type="curve" smooth="yes"/>
      <point x="1062" y="1006" type="line"/>
      <point x="586" y="1006" type="line"/>
      <point x="728" y="1612" type="line" smooth="yes"/>
      <point x="734" y="1629"/>
      <point x="722" y="1647"/>
      <point x="704" y="1647" type="curve" smooth="yes"/>
      <point x="599" y="1647" type="line" smooth="yes"/>
      <point x="577" y="1647"/>
      <point x="557" y="1633"/>
      <point x="549" y="1612" type="curve" smooth="yes"/>
      <point x="407" y="1006" type="line"/>
      <point x="192" y="1006" type="line" smooth="yes"/>
      <point x="149" y="1006"/>
      <point x="125" y="992"/>
      <point x="125" y="949" type="curve" smooth="yes"/>
      <point x="125" y="891" type="line" smooth="yes"/>
      <point x="125" y="848"/>
      <point x="149" y="834"/>
      <point x="192" y="834" type="curve" smooth="yes"/>
      <point x="367" y="834" type="line"/>
      <point x="309" y="587" type="line"/>
      <point x="117" y="587" type="line" smooth="yes"/>
      <point x="74" y="587"/>
      <point x="50" y="573"/>
      <point x="50" y="530" type="curve" smooth="yes"/>
      <point x="50" y="474" type="line" smooth="yes"/>
      <point x="50" y="431"/>
      <point x="74" y="417"/>
      <point x="117" y="417" type="curve" smooth="yes"/>
      <point x="269" y="417" type="line"/>
      <point x="132" y="-170" type="line" smooth="yes"/>
      <point x="126" y="-187"/>
      <point x="138" y="-205"/>
    </contour>
    <contour>
      <point x="488" y="587" type="line"/>
      <point x="546" y="834" type="line"/>
      <point x="1022" y="834" type="line"/>
      <point x="964" y="587" type="line"/>
    </contour>
  </outline>
</glyph>
<glyph name="percent" format="1">
  <advance width="2723"/>
  <unicode hex="0025"/>
  <outline>
    <contour>
      <point x="982" y="-82" type="curve" smooth="yes"/>
      <point x="1014" y="-82" type="line" smooth="yes"/>
      <point x="1060" y="-82"/>
      <point x="1103" y="-54"/>
      <point x="1122" y="-12" type="curve" smooth="yes"/>
      <point x="1776" y="1466" type="line" smooth="yes"/>
      <point x="1791" y="1499"/>
      <point x="1767" y="1536"/>
      <point x="1730" y="1536" type="curve" smooth="yes"/>
      <point x="1699" y="1536" type="line" smooth="yes"/>
      <point x="1653" y="1536"/>
      <point x="1609" y="1508"/>
      <point x="1591" y="1466" type="curve" smooth="yes"/>
      <point x="936" y="-12" type="line" smooth="yes"/>
      <point x="921" y="-45"/>
      <point x="945" y="-82"/>
    </contour>
    <contour>
      <point x="608" y="761" type="curve" smooth="yes"/>
      <point x="442" y="761"/>
      <point x="340" y="875"/>
      <point x="340" y="1059" type="curve" smooth="yes"/>
      <point x="340" y="1247"/>
      <point x="437" y="1357"/>
      <point x="608" y="1357" type="curve" smooth="yes"/>
      <point x="788" y="1357"/>
      <point x="876" y="1247"/>
      <point x="876" y="1059" type="curve" smooth="yes"/>
      <point x="876" y="875"/>
      <point x="783" y="761"/>
    </contour>
    <contour>
      <point x="608" y="621" type="curve" smooth="yes"/>
      <point x="905" y="621"/>
      <point x="1056" y="818"/>
      <point x="1056" y="1056" type="curve" smooth="yes"/>
      <point x="1056" y="1292"/>
      <point x="909" y="1497"/>
      <point x="608" y="1497" type="curve" smooth="yes"/>
      <point x="307" y="1497"/>
      <point x="159" y="1292"/>
      <point x="159" y="1056" type="curve" smooth="yes"/>
      <point x="159" y="818"/>
      <point x="311" y="621"/>
    </contour>
    <contour>
      <point x="2099" y="141" type="curve" smooth="yes"/>
      <point x="1933" y="141"/>
      <point x="1831" y="255"/>
      <point x="1831" y="439" type="curve" smooth="yes"/>
      <point x="1831" y="627"/>
      <point x="1928" y="737"/>
      <point x="2099" y="737" type="curve" smooth="yes"/>
      <point x="2279" y="737"/>
      <point x="2367" y="627"/>
      <point x="2367" y="439" type="curve" smooth="yes"/>
      <point x="2367" y="255"/>
      <point x="2274" y="141"/>
    </contour>
    <contour>
      <point x="2099" y="1" type="curve" smooth="yes"/>
      <point x="2396" y="1"/>
      <point x="2547" y="198"/>
      <point x="2547" y="436" type="curve" smooth="yes"/>
      <point x="2547" y="672"/>
      <point x="2400" y="877"/>
      <point x="2099" y="877" type="curve" smooth="yes"/>
      <point x="1798" y="877"/>
      <point x="1650" y="672"/>
      <point x="1650" y="436" type="curve" smooth="yes"/>
      <point x="1650" y="198"/>
      <point x="1802" y="1"/>
    </contour>
  </outline>
</glyph>
<glyph name="parenleft" format="1">
  <advance width="925"/>
  <unicode hex="0028"/>
  <outline>
    <contour>
      <point x="686" y="-143" type="curve" smooth="yes"/>
      <point x="725" y="-151"/>
      <point x="763" y="-111"/>
      <point x="763" y="-73" type="curve" smooth="yes"/>
      <point x="763" y="-55" type="line" smooth="yes"/>
      <point x="763" y="14"/>
      <point x="720" y="15"/>
      <point x="658" y="46" type="curve" smooth="yes"/>
      <point x="526" y="112"/>
      <point x="399" y="236"/>
      <point x="399" y="699" type="curve" smooth="yes"/>
      <point x="399" y="1162"/>
      <point x="525" y="1284"/>
      <point x="658" y="1350" type="curve" smooth="yes"/>
      <point x="720" y="1381"/>
      <point x="763" y="1381"/>
      <point x="763" y="1450" type="curve" smooth="yes"/>
      <point x="763" y="1470" type="line" smooth="yes"/>
      <point x="763" y="1508"/>
      <point x="725" y="1548"/>
      <point x="686" y="1540" type="curve" smooth="yes"/>
      <point x="289" y="1460"/>
      <point x="173" y="1100"/>
      <point x="173" y="699" type="curve" smooth="yes"/>
      <point x="173" y="299"/>
      <point x="289" y="-62"/>
    </contour>
  </outline>
</glyph>
<glyph name="parenright" format="1">
  <advance width="935"/>
  <unicode hex="0029"/>
  <outline>
    <contour>
      <point x="241" y="-143" type="curve" smooth="yes"/>
      <point x="638" y="-63"/>
      <point x="754" y="297"/>
      <point x="754" y="698" type="curve" smooth="yes"/>
      <point x="754" y="1098"/>
      <point x="638" y="1459"/>
      <point x="241" y="1540" type="curve" smooth="yes"/>
      <point x="202" y="1548"/>
      <point x="164" y="1508"/>
      <point x="164" y="1470" type="curve" smooth="yes"/>
      <point x="164" y="1452" type="line" smooth="yes"/>
      <point x="164" y="1383"/>
      <point x="207" y="1382"/>
      <point x="269" y="1351" type="curve" smooth="yes"/>
      <point x="401" y="1285"/>
      <point x="528" y="1161"/>
      <point x="528" y="698" type="curve" smooth="yes"/>
      <point x="528" y="235"/>
      <point x="402" y="113"/>
      <point x="269" y="47" type="curve" smooth="yes"/>
      <point x="207" y="16"/>
      <point x="164" y="16"/>
      <point x="164" y="-53" type="curve" smooth="yes"/>
      <point x="164" y="-73" type="line" smooth="yes"/>
      <point x="164" y="-111"/>
      <point x="202" y="-151"/>
    </contour>
  </outline>
</glyph>
<glyph name="asterisk" format="1">
  <advance width="1218"/>
  <unicode hex="002A"/>
  <outline>
    <contour>
      <point x="354.0" y="295.0" type="curve" smooth="yes"/>
      <point x="389.0" y="295.0"/>
      <point x="420.0" y="316.0"/>
      <point x="435.0" y="346.0" type="curve" smooth="yes"/>
      <point x="609.0" y="695.0" type="line"/>
      <point x="782.0" y="346.0" type="line" smooth="yes"/>
      <point x="797.0" y="316.0"/>
      <point x="829.0" y="295.0"/>
      <point x="863.0" y="295.0" type="curve" smooth="yes"/>
      <point x="913.0" y="295.0"/>
      <point x="960.0" y="339.0"/>
      <point x="960.0" y="389.0" type="curve" smooth="yes"/>
      <point x="960.0" y="467.0"/>
      <point x="728.0" y="685.0"/>
      <point x="678.0" y="741.0" type="curve"/>
      <point x="1058.0" y="824.0" type="line" smooth="yes"/>
      <point x="1099.0" y="833.0"/>
      <point x="1131.0" y="869.0"/>
      <point x="1131.0" y="911.0" type="curve" smooth="yes"/>
      <point x="1131.0" y="961.0"/>
      <point x="1092.0" y="1009.0"/>
      <point x="1040.0" y="1009.0" type="curve" smooth="yes"/>
      <point x="981.0" y="1009.0"/>
      <point x="714.0" y="853.0"/>
      <point x="650.0" y="820.0" type="curve"/>
      <point x="666.0" y="946.0"/>
      <point x="700.0" y="1095.0"/>
      <point x="700.0" y="1221.0" type="curve" smooth="yes"/>
      <point x="700.0" y="1271.0"/>
      <point x="659.0" y="1309.0"/>
      <point x="609.0" y="1309.0" type="curve" smooth="yes"/>
      <point x="562.0" y="1309.0"/>
      <point x="515.0" y="1276.0"/>
      <point x="515.0" y="1226.0" type="curve" smooth="yes"/>
      <point x="515.0" y="1098.0"/>
      <point x="550.0" y="948.0"/>
      <point x="567.0" y="820.0" type="curve"/>
      <point x="503.0" y="853.0"/>
      <point x="236.0" y="1009.0"/>
      <point x="177.0" y="1009.0" type="curve" smooth="yes"/>
      <point x="125.0" y="1009.0"/>
      <point x="86.0" y="961.0"/>
      <point x="86.0" y="911.0" type="curve" smooth="yes"/>
      <point x="86.0" y="869.0"/>
      <point x="118.0" y="833.0"/>
      <point x="159.0" y="824.0" type="curve" smooth="yes"/>
      <point x="539.0" y="741.0" type="line"/>
      <point x="489.0" y="685.0"/>
      <point x="257.0" y="467.0"/>
      <point x="257.0" y="389.0" type="curve" smooth="yes"/>
      <point x="257.0" y="339.0"/>
      <point x="304.0" y="295.0"/>
    </contour>
  </outline>
</glyph>
<glyph name="plus" format="1">
  <advance width="1342"/>
  <unicode hex="002B"/>
  <outline>
    <contour>
      <point x="583" y="20" type="curve" smooth="yes"/>
      <point x="755" y="20" type="line" smooth="yes"/>
      <point x="798" y="20"/>
      <point x="832" y="54"/>
      <point x="832" y="97" type="curve" smooth="yes"/>
      <point x="832" y="360" type="line" smooth="yes"/>
      <point x="832" y="380"/>
      <point x="849" y="397"/>
      <point x="869" y="397" type="curve" smooth="yes"/>
      <point x="1109" y="397" type="line" smooth="yes"/>
      <point x="1152" y="397"/>
      <point x="1186" y="431"/>
      <point x="1186" y="474" type="curve" smooth="yes"/>
      <point x="1186" y="625" type="line" smooth="yes"/>
      <point x="1186" y="668"/>
      <point x="1152" y="702"/>
      <point x="1109" y="702" type="curve" smooth="yes"/>
      <point x="869" y="702" type="line" smooth="yes"/>
      <point x="849" y="702"/>
      <point x="832" y="719"/>
      <point x="832" y="739" type="curve" smooth="yes"/>
      <point x="832" y="1002" type="line" smooth="yes"/>
      <point x="832" y="1045"/>
      <point x="798" y="1079"/>
      <point x="755" y="1079" type="curve" smooth="yes"/>
      <point x="583" y="1079" type="line" smooth="yes"/>
      <point x="540" y="1079"/>
      <point x="506" y="1045"/>
      <point x="506" y="1002" type="curve" smooth="yes"/>
      <point x="506" y="739" type="line" smooth="yes"/>
      <point x="506" y="719"/>
      <point x="489" y="702"/>
      <point x="469" y="702" type="curve" smooth="yes"/>
      <point x="225" y="702" type="line" smooth="yes"/>
      <point x="182" y="702"/>
      <point x="148" y="668"/>
      <point x="148" y="625" type="curve" smooth="yes"/>
      <point x="148" y="474" type="line" smooth="yes"/>
      <point x="148" y="431"/>
      <point x="182" y="397"/>
      <point x="225" y="397" type="curve" smooth="yes"/>
      <point x="469" y="397" type="line" smooth="yes"/>
      <point x="489" y="397"/>
      <point x="506" y="380"/>
      <point x="506" y="360" type="curve" smooth="yes"/>
      <point x="506" y="97" type="line" smooth="yes"/>
      <point x="506" y="54"/>
      <point x="540" y="20"/>
    </contour>
  </outline>
</glyph>
<glyph name="comma" format="1">
  <advance width="714"/>
  <unicode hex="002C"/>
  <outline>
    <contour>
      <point x="231" y="-301" type="curve" smooth="yes"/>
      <point x="369" y="-278"/>
      <point x="500" y="-142"/>
      <point x="500" y="95" type="curve" smooth="yes"/>
      <point x="500" y="240" type="line" smooth="yes"/>
      <point x="500" y="283"/>
      <point x="466" y="317"/>
      <point x="423" y="317" type="curve" smooth="yes"/>
      <point x="225" y="317" type="line" smooth="yes"/>
      <point x="182" y="317"/>
      <point x="165" y="296"/>
      <point x="165" y="253" type="curve" smooth="yes"/>
      <point x="165" y="50" type="line" smooth="yes"/>
      <point x="165" y="12"/>
      <point x="187.0" y="0.0"/>
      <point x="225.0" y="0.0" type="curve" smooth="yes"/>
      <point x="310" y="0" type="line" smooth="yes"/>
      <point x="325" y="0"/>
      <point x="327" y="-11"/>
      <point x="327" y="-27" type="curve" smooth="yes"/>
      <point x="327" y="-51"/>
      <point x="295" y="-128"/>
      <point x="226" y="-171" type="curve" smooth="yes"/>
      <point x="183" y="-198"/>
      <point x="165.0" y="-192.0"/>
      <point x="165.0" y="-246.0" type="curve" smooth="yes"/>
      <point x="165" y="-256" type="line" smooth="yes"/>
      <point x="165" y="-292"/>
      <point x="196" y="-307"/>
    </contour>
  </outline>
</glyph>
<glyph name="period" format="1">
  <advance width="709"/>
  <unicode hex="002E"/>
  <outline>
    <contour>
      <point x="218" y="0" type="curve" smooth="yes"/>
      <point x="355" y="0" type="line" smooth="yes"/>
      <point x="398" y="0"/>
      <point x="432" y="34"/>
      <point x="432" y="77" type="curve" smooth="yes"/>
      <point x="432" y="221" type="line" smooth="yes"/>
      <point x="432" y="264"/>
      <point x="398" y="298"/>
      <point x="355" y="298" type="curve" smooth="yes"/>
      <point x="218" y="298" type="line" smooth="yes"/>
      <point x="175" y="298"/>
      <point x="141" y="264"/>
      <point x="141" y="221" type="curve" smooth="yes"/>
      <point x="141" y="77" type="line" smooth="yes"/>
      <point x="141" y="34"/>
      <point x="175" y="0"/>
    </contour>
  </outline>
</glyph>
<glyph name="slash" format="1">
  <advance width="1166"/>
  <unicode hex="002F"/>
  <outline>
    <contour>
      <point x="156" y="-205" type="curve" smooth="yes"/>
      <point x="319" y="-205" type="line" smooth="yes"/>
      <point x="341" y="-205"/>
      <point x="361" y="-191"/>
      <point x="369" y="-170" type="curve" smooth="yes"/>
      <point x="1056" y="1612" type="line" smooth="yes"/>
      <point x="1062" y="1629"/>
      <point x="1050" y="1647"/>
      <point x="1032" y="1647" type="curve" smooth="yes"/>
      <point x="869" y="1647" type="line" smooth="yes"/>
      <point x="847" y="1647"/>
      <point x="827" y="1633"/>
      <point x="819" y="1612" type="curve" smooth="yes"/>
      <point x="132" y="-170" type="line" smooth="yes"/>
      <point x="126" y="-187"/>
      <point x="138" y="-205"/>
    </contour>
  </outline>
</glyph>
<glyph name="zero" format="1">
  <advance width="2371"/>
  <unicode hex="0030"/>
  <outline>
    <contour>
      <point x="1185.0" y="135.0" type="curve" smooth="yes"/>
      <point x="798.0" y="135.0"/>
      <point x="594" y="282"/>
      <point x="594" y="732" type="curve" smooth="yes"/>
      <point x="594" y="1112"/>
      <point x="785.0" y="1299.0"/>
      <point x="1185.0" y="1299.0" type="curve" smooth="yes"/>
      <point x="1588.0" y="1299.0"/>
      <point x="1777" y="1110"/>
      <point x="1777" y="732" type="curve" smooth="yes"/>
      <point x="1777" y="282"/>
      <point x="1575.0" y="135.0"/>
    </contour>
    <contour>
      <point x="1185.0" y="-41.0" type="curve" smooth="yes"/>
      <point x="1646.0" y="-41.0"/>
      <point x="2006" y="153"/>
      <point x="2006" y="732" type="curve" smooth="yes"/>
      <point x="2006" y="1264"/>
      <point x="1646.0" y="1475.0"/>
      <point x="1185.0" y="1475.0" type="curve" smooth="yes"/>
      <point x="727.0" y="1475.0"/>
      <point x="365" y="1264"/>
      <point x="365" y="732" type="curve" smooth="yes"/>
      <point x="365" y="153"/>
      <point x="727.0" y="-41.0"/>
    </contour>
  </outline>
</glyph>
<glyph name="one" format="1">
  <advance width="1405"/>
  <unicode hex="0031"/>
  <outline>
    <contour>
      <point x="642" y="0" type="curve" smooth="yes"/>
      <point x="736" y="0" type="line" smooth="yes"/>
      <point x="779" y="0"/>
      <point x="803" y="24"/>
      <point x="803" y="67" type="curve" smooth="yes"/>
      <point x="803" y="1371" type="line" smooth="yes"/>
      <point x="803" y="1414"/>
      <point x="779" y="1438"/>
      <point x="736" y="1438" type="curve" smooth="yes"/>
      <point x="265" y="1388" type="line" smooth="yes"/>
      <point x="222" y="1388"/>
      <point x="198" y="1364"/>
      <point x="198" y="1321" type="curve" smooth="yes"/>
      <point x="198" y="1286" type="line" smooth="yes"/>
      <point x="198" y="1243"/>
      <point x="222" y="1219"/>
      <point x="265" y="1219" type="curve" smooth="yes"/>
      <point x="538" y="1249" type="line" smooth="yes"/>
      <point x="558" y="1249"/>
      <point x="575" y="1232"/>
      <point x="575" y="1212" type="curve" smooth="yes"/>
      <point x="575" y="67" type="line" smooth="yes"/>
      <point x="575" y="24"/>
      <point x="599" y="0"/>
    </contour>
  </outline>
</glyph>
<glyph name="three" format="1">
  <advance width="2366"/>
  <unicode hex="0033"/>
  <outline>
    <contour>
      <point x="1121" y="-41" type="curve" smooth="yes"/>
      <point x="1579" y="-41"/>
      <point x="1992" y="55"/>
      <point x="1992" y="375" type="curve" smooth="yes"/>
      <point x="1992" y="575"/>
      <point x="1846" y="690"/>
      <point x="1652" y="727" type="curve"/>
      <point x="1840" y="760"/>
      <point x="1969" y="863"/>
      <point x="1969" y="1063" type="curve" smooth="yes"/>
      <point x="1969" y="1383"/>
      <point x="1579" y="1475"/>
      <point x="1121" y="1475" type="curve" smooth="yes"/>
      <point x="757" y="1475"/>
      <point x="441" y="1436"/>
      <point x="210" y="1082" type="curve"/>
      <point x="226" y="1043" type="line"/>
      <point x="391" y="1017" type="line"/>
      <point x="429" y="1027"/>
      <point x="435" y="1040"/>
      <point x="445" y="1054" type="curve" smooth="yes"/>
      <point x="585" y="1265"/>
      <point x="830" y="1299"/>
      <point x="1121" y="1299" type="curve" smooth="yes"/>
      <point x="1508" y="1299"/>
      <point x="1740" y="1254"/>
      <point x="1740" y="1053" type="curve" smooth="yes"/>
      <point x="1740" y="836"/>
      <point x="1529" y="815"/>
      <point x="1031" y="815" type="curve" smooth="yes"/>
      <point x="1013" y="815"/>
      <point x="1000" y="808"/>
      <point x="993" y="791" type="curve"/>
      <point x="993" y="790"/>
      <point x="993" y="789"/>
      <point x="992" y="788" type="curve"/>
      <point x="992" y="787" type="line"/>
      <point x="989" y="780"/>
      <point x="988" y="771"/>
      <point x="987" y="761" type="curve" smooth="yes"/>
      <point x="987" y="694" type="line" smooth="yes"/>
      <point x="987" y="690"/>
      <point x="988" y="687"/>
      <point x="988" y="684" type="curve"/>
      <point x="988" y="683"/>
      <point x="988" y="683"/>
      <point x="988" y="682" type="curve"/>
      <point x="989" y="681"/>
      <point x="989" y="681"/>
      <point x="989" y="680" type="curve"/>
      <point x="994" y="651"/>
      <point x="1007" y="639"/>
      <point x="1031" y="639" type="curve" smooth="yes"/>
      <point x="1508" y="639"/>
      <point x="1763" y="657"/>
      <point x="1763" y="390" type="curve" smooth="yes"/>
      <point x="1763" y="209"/>
      <point x="1508" y="135"/>
      <point x="1121" y="135" type="curve" smooth="yes"/>
      <point x="830" y="135"/>
      <point x="648" y="169"/>
      <point x="462" y="361" type="curve" smooth="yes"/>
      <point x="450" y="373"/>
      <point x="446" y="387"/>
      <point x="408" y="397" type="curve"/>
      <point x="243" y="371" type="line"/>
      <point x="227" y="333" type="line"/>
      <point x="478" y="19"/>
      <point x="757" y="-41"/>
    </contour>
  </outline>
</glyph>
<glyph name="six" format="1">
  <advance width="2371"/>
  <unicode hex="0036"/>
  <outline>
    <contour>
      <point x="1185" y="-42" type="curve" smooth="yes"/>
      <point x="1646" y="-42"/>
      <point x="2006" y="61"/>
      <point x="2006" y="426" type="curve" smooth="yes"/>
      <point x="2006" y="683"/>
      <point x="1843" y="896"/>
      <point x="1234" y="896" type="curve" smooth="yes"/>
      <point x="1071" y="896"/>
      <point x="876" y="881"/>
      <point x="643" y="847" type="curve"/>
      <point x="643" y="910" type="line"/>
      <point x="643" y="1152"/>
      <point x="805" y="1295"/>
      <point x="1234" y="1295" type="curve" smooth="yes"/>
      <point x="1408" y="1295"/>
      <point x="1681" y="1245"/>
      <point x="1767" y="1206" type="curve" smooth="yes"/>
      <point x="1772" y="1204"/>
      <point x="1777" y="1203"/>
      <point x="1783" y="1203" type="curve" smooth="yes"/>
      <point x="1797" y="1203"/>
      <point x="1812" y="1211"/>
      <point x="1818" y="1229" type="curve" smooth="yes"/>
      <point x="1849" y="1324" type="line" smooth="yes"/>
      <point x="1851" y="1329"/>
      <point x="1851" y="1334"/>
      <point x="1851" y="1339" type="curve" smooth="yes"/>
      <point x="1851" y="1357"/>
      <point x="1840" y="1370"/>
      <point x="1823" y="1377" type="curve" smooth="yes"/>
      <point x="1703" y="1425"/>
      <point x="1437" y="1472"/>
      <point x="1255" y="1472" type="curve" smooth="yes"/>
      <point x="686" y="1472"/>
      <point x="405" y="1295"/>
      <point x="405" y="736" type="curve" smooth="yes"/>
      <point x="405" y="292"/>
      <point x="533" y="-42"/>
    </contour>
    <contour>
      <point x="1185" y="134" type="curve" smooth="yes"/>
      <point x="798" y="134"/>
      <point x="634" y="287"/>
      <point x="634" y="555" type="curve" smooth="yes"/>
      <point x="634" y="686" type="line"/>
      <point x="879" y="720"/>
      <point x="1074" y="735"/>
      <point x="1227" y="735" type="curve" smooth="yes"/>
      <point x="1675" y="735"/>
      <point x="1777" y="606"/>
      <point x="1777" y="434" type="curve" smooth="yes"/>
      <point x="1777" y="190"/>
      <point x="1575" y="134"/>
    </contour>
  </outline>
</glyph>
<glyph name="seven" format="1">
  <advance width="1405"/>
  <unicode hex="0037"/>
  <outline>
    <contour>
      <point x="304" y="0" type="curve" smooth="yes"/>
      <point x="398" y="0" type="line" smooth="yes"/>
      <point x="441" y="0"/>
      <point x="452" y="26"/>
      <point x="465" y="67" type="curve" smooth="yes"/>
      <point x="873" y="1371" type="line" smooth="yes"/>
      <point x="873" y="1414"/>
      <point x="849" y="1438"/>
      <point x="806" y="1438" type="curve" smooth="yes"/>
      <point x="65" y="1438" type="line" smooth="yes"/>
      <point x="22" y="1438"/>
      <point x="-2" y="1414"/>
      <point x="-2" y="1371" type="curve" smooth="yes"/>
      <point x="-2" y="1336" type="line" smooth="yes"/>
      <point x="-2" y="1293"/>
      <point x="22" y="1269"/>
      <point x="65" y="1269" type="curve" smooth="yes"/>
      <point x="568" y="1269" type="line" smooth="yes"/>
      <point x="588" y="1269"/>
      <point x="601" y="1255"/>
      <point x="595" y="1236" type="curve" smooth="yes"/>
      <point x="237" y="67" type="line" smooth="yes"/>
      <point x="224" y="26"/>
      <point x="261" y="0"/>
    </contour>
  </outline>
</glyph>
<glyph name="eight" format="1">
  <advance width="2371"/>
  <unicode hex="0038"/>
  <outline>
    <contour>
      <point x="1185" y="-41" type="curve" smooth="yes"/>
      <point x="1646" y="-41"/>
      <point x="2006" y="-35"/>
      <point x="2006" y="387" type="curve" smooth="yes"/>
      <point x="2006" y="545"/>
      <point x="1867" y="663"/>
      <point x="1701" y="699" type="curve"/>
      <point x="1809" y="737"/>
      <point x="1906" y="879"/>
      <point x="1906" y="1029" type="curve" smooth="yes"/>
      <point x="1906" y="1411"/>
      <point x="1646" y="1473"/>
      <point x="1185" y="1473" type="curve" smooth="yes"/>
      <point x="727" y="1473"/>
      <point x="445" y="1398"/>
      <point x="445" y="1059" type="curve" smooth="yes"/>
      <point x="445" y="909"/>
      <point x="547" y="795"/>
      <point x="623" y="752" type="curve"/>
      <point x="500" y="695"/>
      <point x="365" y="561"/>
      <point x="365" y="403" type="curve" smooth="yes"/>
      <point x="365" y="-42"/>
      <point x="727" y="-41"/>
    </contour>
    <contour>
      <point x="1185" y="135" type="curve" smooth="yes"/>
      <point x="798" y="135"/>
      <point x="594" y="135"/>
      <point x="594" y="403" type="curve" smooth="yes"/>
      <point x="594" y="498"/>
      <point x="650" y="613"/>
      <point x="782" y="687" type="curve"/>
      <point x="1576" y="588"/>
      <point x="1777" y="634"/>
      <point x="1777" y="403" type="curve" smooth="yes"/>
      <point x="1777" y="135"/>
      <point x="1575" y="135"/>
    </contour>
    <contour>
      <point x="1535" y="761" type="curve"/>
      <point x="669" y="857"/>
      <point x="674" y="832"/>
      <point x="674" y="1029" type="curve" smooth="yes"/>
      <point x="674" y="1271"/>
      <point x="817" y="1297"/>
      <point x="1185" y="1297" type="curve" smooth="yes"/>
      <point x="1517" y="1297"/>
      <point x="1697" y="1295"/>
      <point x="1697" y="1025" type="curve" smooth="yes"/>
      <point x="1697" y="887"/>
      <point x="1597" y="812"/>
    </contour>
  </outline>
</glyph>
<glyph name="nine" format="1">
  <advance width="2371"/>
  <unicode hex="0039"/>
  <outline>
    <contour>
      <point x="1156" y="-42" type="curve" smooth="yes"/>
      <point x="1725" y="-42"/>
      <point x="2006" y="135"/>
      <point x="2006" y="694" type="curve" smooth="yes"/>
      <point x="2006" y="1138"/>
      <point x="1878" y="1472"/>
      <point x="1226" y="1472" type="curve" smooth="yes"/>
      <point x="765" y="1472"/>
      <point x="405" y="1369"/>
      <point x="405" y="1004" type="curve" smooth="yes"/>
      <point x="405" y="747"/>
      <point x="568" y="534"/>
      <point x="1177" y="534" type="curve" smooth="yes"/>
      <point x="1340" y="534"/>
      <point x="1535" y="549"/>
      <point x="1768" y="583" type="curve"/>
      <point x="1768" y="520" type="line"/>
      <point x="1768" y="278"/>
      <point x="1606" y="135"/>
      <point x="1177" y="135" type="curve" smooth="yes"/>
      <point x="1003" y="135"/>
      <point x="730" y="185"/>
      <point x="644" y="224" type="curve" smooth="yes"/>
      <point x="639" y="226"/>
      <point x="634" y="227"/>
      <point x="628" y="227" type="curve" smooth="yes"/>
      <point x="614" y="227"/>
      <point x="599" y="219"/>
      <point x="593" y="201" type="curve" smooth="yes"/>
      <point x="562" y="106" type="line" smooth="yes"/>
      <point x="560" y="101"/>
      <point x="560" y="96"/>
      <point x="560" y="91" type="curve" smooth="yes"/>
      <point x="560" y="73"/>
      <point x="571" y="60"/>
      <point x="588" y="53" type="curve" smooth="yes"/>
      <point x="708" y="5"/>
      <point x="974" y="-42"/>
    </contour>
    <contour>
      <point x="1184" y="695" type="curve" smooth="yes"/>
      <point x="736" y="695"/>
      <point x="634" y="824"/>
      <point x="634" y="996" type="curve" smooth="yes"/>
      <point x="634" y="1240"/>
      <point x="836" y="1296"/>
      <point x="1226" y="1296" type="curve" smooth="yes"/>
      <point x="1613" y="1296"/>
      <point x="1777" y="1143"/>
      <point x="1777" y="875" type="curve" smooth="yes"/>
      <point x="1777" y="744" type="line"/>
      <point x="1532" y="710"/>
      <point x="1337" y="695"/>
    </contour>
  </outline>
</glyph>
<glyph name="colon" format="1">
  <advance width="709"/>
  <unicode hex="003A"/>
  <outline>
    <contour>
      <point x="218.0" y="0.0" type="curve" smooth="yes"/>
      <point x="355.0" y="0.0" type="line" smooth="yes"/>
      <point x="398.0" y="0.0"/>
      <point x="432.0" y="34.0"/>
      <point x="432.0" y="77.0" type="curve" smooth="yes"/>
      <point x="432.0" y="221.0" type="line" smooth="yes"/>
      <point x="432.0" y="264.0"/>
      <point x="398.0" y="298.0"/>
      <point x="355.0" y="298.0" type="curve" smooth="yes"/>
      <point x="218.0" y="298.0" type="line" smooth="yes"/>
      <point x="175.0" y="298.0"/>
      <point x="141.0" y="264.0"/>
      <point x="141.0" y="221.0" type="curve" smooth="yes"/>
      <point x="141.0" y="77.0" type="line" smooth="yes"/>
      <point x="141.0" y="34.0"/>
      <point x="175.0" y="0.0"/>
    </contour>
    <contour>
      <point x="218" y="754" type="curve" smooth="yes"/>
      <point x="355" y="754" type="line" smooth="yes"/>
      <point x="398" y="754"/>
      <point x="432" y="788"/>
      <point x="432" y="831" type="curve" smooth="yes"/>
      <point x="432" y="975" type="line" smooth="yes"/>
      <point x="432" y="1018"/>
      <point x="398" y="1052"/>
      <point x="355" y="1052" type="curve" smooth="yes"/>
      <point x="218" y="1052" type="line" smooth="yes"/>
      <point x="175" y="1052"/>
      <point x="141" y="1018"/>
      <point x="141" y="975" type="curve" smooth="yes"/>
      <point x="141" y="831" type="line" smooth="yes"/>
      <point x="141" y="788"/>
      <point x="175" y="754"/>
    </contour>
  </outline>
</glyph>
<glyph name="semicolon" format="1">
  <advance width="714"/>
  <unicode hex="003B"/>
  <outline>
    <contour>
      <point x="231.0" y="-301.0" type="curve" smooth="yes"/>
      <point x="369.0" y="-278.0"/>
      <point x="500.0" y="-142.0"/>
      <point x="500.0" y="95.0" type="curve" smooth="yes"/>
      <point x="500.0" y="240.0" type="line" smooth="yes"/>
      <point x="500.0" y="283.0"/>
      <point x="466.0" y="317.0"/>
      <point x="423.0" y="317.0" type="curve" smooth="yes"/>
      <point x="225.0" y="317.0" type="line" smooth="yes"/>
      <point x="182.0" y="317.0"/>
      <point x="165.0" y="296.0"/>
      <point x="165.0" y="253.0" type="curve" smooth="yes"/>
      <point x="165.0" y="50.0" type="line" smooth="yes"/>
      <point x="165.0" y="12.0"/>
      <point x="187.0" y="0.0"/>
      <point x="225.0" y="0.0" type="curve" smooth="yes"/>
      <point x="310.0" y="0.0" type="line" smooth="yes"/>
      <point x="325.0" y="0.0"/>
      <point x="327.0" y="-11.0"/>
      <point x="327.0" y="-27.0" type="curve" smooth="yes"/>
      <point x="327.0" y="-51.0"/>
      <point x="295.0" y="-128.0"/>
      <point x="226.0" y="-171.0" type="curve" smooth="yes"/>
      <point x="183.0" y="-198.0"/>
      <point x="165.0" y="-192.0"/>
      <point x="165.0" y="-246.0" type="curve" smooth="yes"/>
      <point x="165.0" y="-256.0" type="line" smooth="yes"/>
      <point x="165.0" y="-292.0"/>
      <point x="196.0" y="-307.0"/>
    </contour>
    <contour>
      <point x="265" y="754" type="curve" smooth="yes"/>
      <point x="402" y="754" type="line" smooth="yes"/>
      <point x="445" y="754"/>
      <point x="479" y="788"/>
      <point x="479" y="831" type="curve" smooth="yes"/>
      <point x="479" y="975" type="line" smooth="yes"/>
      <point x="479" y="1018"/>
      <point x="445" y="1052"/>
      <point x="402" y="1052" type="curve" smooth="yes"/>
      <point x="265" y="1052" type="line" smooth="yes"/>
      <point x="222" y="1052"/>
      <point x="188" y="1018"/>
      <point x="188" y="975" type="curve" smooth="yes"/>
      <point x="188" y="831" type="line" smooth="yes"/>
      <point x="188" y="788"/>
      <point x="222" y="754"/>
    </contour>
  </outline>
</glyph>
<glyph name="less" format="1">
  <advance width="1628"/>
  <unicode hex="003C"/>
  <outline>
    <contour>
      <point x="1233" y="-23" type="curve" smooth="yes"/>
      <point x="1249" y="-23"/>
      <point x="1257" y="-10"/>
      <point x="1257" y="15" type="curve" smooth="yes"/>
      <point x="1257" y="99" type="line" smooth="yes"/>
      <point x="1257" y="142"/>
      <point x="1236" y="170"/>
      <point x="1190" y="193" type="curve" smooth="yes"/>
      <point x="486" y="538" type="line" smooth="yes"/>
      <point x="480" y="541"/>
      <point x="477" y="546"/>
      <point x="477" y="550" type="curve" smooth="yes"/>
      <point x="477" y="555"/>
      <point x="480" y="560"/>
      <point x="486" y="563" type="curve" smooth="yes"/>
      <point x="1190" y="947" type="line" smooth="yes"/>
      <point x="1233" y="971"/>
      <point x="1257" y="988"/>
      <point x="1257" y="1031" type="curve" smooth="yes"/>
      <point x="1257" y="1115" type="line" smooth="yes"/>
      <point x="1257" y="1143"/>
      <point x="1247" y="1157"/>
      <point x="1228" y="1157" type="curve" smooth="yes"/>
      <point x="1218" y="1157"/>
      <point x="1205" y="1153"/>
      <point x="1190" y="1145" type="curve" smooth="yes"/>
      <point x="378" y="708" type="line" smooth="yes"/>
      <point x="338" y="685"/>
      <point x="312" y="651"/>
      <point x="312" y="612" type="curve" smooth="yes"/>
      <point x="312" y="502" type="line" smooth="yes"/>
      <point x="312" y="462"/>
      <point x="334" y="416"/>
      <point x="378" y="396" type="curve" smooth="yes"/>
      <point x="1190" y="-5" type="line" smooth="yes"/>
      <point x="1210" y="-14"/>
      <point x="1222" y="-23"/>
    </contour>
  </outline>
</glyph>
<glyph name="equal" format="1">
  <advance width="798"/>
  <unicode hex="003D"/>
  <outline>
    <contour>
      <point x="118" y="312" type="curve" smooth="yes"/>
      <point x="663" y="312" type="line" smooth="yes"/>
      <point x="706" y="312"/>
      <point x="720" y="326"/>
      <point x="720" y="369" type="curve" smooth="yes"/>
      <point x="720" y="413" type="line" smooth="yes"/>
      <point x="720" y="456"/>
      <point x="706" y="470"/>
      <point x="663" y="470" type="curve" smooth="yes"/>
      <point x="118" y="470" type="line" smooth="yes"/>
      <point x="75" y="470"/>
      <point x="61" y="456"/>
      <point x="61" y="413" type="curve" smooth="yes"/>
      <point x="61" y="369" type="line" smooth="yes"/>
      <point x="61" y="326"/>
      <point x="75" y="312"/>
    </contour>
    <contour>
      <point x="118.0" y="617.0" type="curve" smooth="yes"/>
      <point x="663.0" y="617.0" type="line" smooth="yes"/>
      <point x="706.0" y="617.0"/>
      <point x="720.0" y="631.0"/>
      <point x="720.0" y="674.0" type="curve" smooth="yes"/>
      <point x="720.0" y="718.0" type="line" smooth="yes"/>
      <point x="720.0" y="761.0"/>
      <point x="706.0" y="775.0"/>
      <point x="663.0" y="775.0" type="curve" smooth="yes"/>
      <point x="118.0" y="775.0" type="line" smooth="yes"/>
      <point x="75.0" y="775.0"/>
      <point x="61.0" y="761.0"/>
      <point x="61.0" y="718.0" type="curve" smooth="yes"/>
      <point x="61.0" y="674.0" type="line" smooth="yes"/>
      <point x="61.0" y="631.0"/>
      <point x="75.0" y="617.0"/>
    </contour>
  </outline>
</glyph>
<glyph name="greater" format="1">
  <advance width="1628"/>
  <unicode hex="003E"/>
  <outline>
    <contour>
      <point x="341" y="-23" type="curve" smooth="yes"/>
      <point x="351" y="-23"/>
      <point x="364" y="-19"/>
      <point x="379" y="-11" type="curve" smooth="yes"/>
      <point x="1191" y="426" type="line" smooth="yes"/>
      <point x="1231" y="449"/>
      <point x="1257" y="483"/>
      <point x="1257" y="522" type="curve" smooth="yes"/>
      <point x="1257" y="632" type="line" smooth="yes"/>
      <point x="1257" y="672"/>
      <point x="1235" y="718"/>
      <point x="1191" y="738" type="curve" smooth="yes"/>
      <point x="379" y="1139" type="line" smooth="yes"/>
      <point x="359" y="1148"/>
      <point x="347" y="1157"/>
      <point x="336" y="1157" type="curve" smooth="yes"/>
      <point x="320" y="1157"/>
      <point x="312" y="1144"/>
      <point x="312" y="1119" type="curve" smooth="yes"/>
      <point x="312" y="1035" type="line" smooth="yes"/>
      <point x="312" y="992"/>
      <point x="333" y="964"/>
      <point x="379" y="941" type="curve" smooth="yes"/>
      <point x="1083" y="596" type="line" smooth="yes"/>
      <point x="1089" y="593"/>
      <point x="1092" y="588"/>
      <point x="1092" y="584" type="curve" smooth="yes"/>
      <point x="1092" y="579"/>
      <point x="1089" y="574"/>
      <point x="1083" y="571" type="curve" smooth="yes"/>
      <point x="379" y="187" type="line" smooth="yes"/>
      <point x="336" y="163"/>
      <point x="312" y="146"/>
      <point x="312" y="103" type="curve" smooth="yes"/>
      <point x="312" y="19" type="line" smooth="yes"/>
      <point x="312" y="-9"/>
      <point x="322" y="-23"/>
    </contour>
  </outline>
</glyph>
<glyph name="A" format="1">
  <advance width="1974"/>
  <unicode hex="0041"/>
  <outline>
    <contour>
      <point x="194" y="0" type="curve" smooth="yes"/>
      <point x="298" y="0" type="line" smooth="yes"/>
      <point x="341" y="0"/>
      <point x="377" y="24"/>
      <point x="397" y="67" type="curve" smooth="yes"/>
      <point x="529" y="332" type="line"/>
      <point x="538" y="338" type="line"/>
      <point x="1443" y="338" type="line"/>
      <point x="1451" y="333" type="line"/>
      <point x="1576" y="67" type="line" smooth="yes"/>
      <point x="1596" y="23"/>
      <point x="1634" y="0"/>
      <point x="1677" y="0" type="curve" smooth="yes"/>
      <point x="1781" y="0" type="line" smooth="yes"/>
      <point x="1810" y="0"/>
      <point x="1825" y="11"/>
      <point x="1825" y="31" type="curve" smooth="yes"/>
      <point x="1825" y="41"/>
      <point x="1821" y="53"/>
      <point x="1814" y="67" type="curve" smooth="yes"/>
      <point x="1160" y="1371" type="line" smooth="yes"/>
      <point x="1139" y="1412"/>
      <point x="1106" y="1435"/>
      <point x="1066" y="1438" type="curve"/>
      <point x="946" y="1438" type="line"/>
      <point x="906" y="1435"/>
      <point x="873" y="1412"/>
      <point x="853" y="1371" type="curve" smooth="yes"/>
      <point x="159" y="67" type="line" smooth="yes"/>
      <point x="152" y="53"/>
      <point x="149" y="42"/>
      <point x="149" y="32" type="curve" smooth="yes"/>
      <point x="149" y="11"/>
      <point x="165" y="0"/>
    </contour>
    <contour>
      <point x="606" y="473" type="line" smooth="yes"/>
      <point x="601" y="473"/>
      <point x="599" y="475"/>
      <point x="599" y="477" type="curve" smooth="yes"/>
      <point x="599" y="478"/>
      <point x="600" y="479"/>
      <point x="600" y="480" type="curve"/>
      <point x="1002" y="1278" type="line"/>
      <point x="1003" y="1278"/>
      <point x="1003" y="1280"/>
      <point x="1004" y="1280" type="curve" smooth="yes"/>
      <point x="1005" y="1280"/>
      <point x="1005" y="1279"/>
      <point x="1006" y="1278" type="curve"/>
      <point x="1385" y="481" type="line"/>
      <point x="1386" y="480"/>
      <point x="1387" y="478"/>
      <point x="1387" y="476" type="curve" smooth="yes"/>
      <point x="1387" y="474"/>
      <point x="1386" y="473"/>
      <point x="1382" y="473" type="curve" smooth="yes"/>
    </contour>
  </outline>
</glyph>
<glyph name="B" format="1">
  <advance width="2350"/>
  <unicode hex="0042"/>
  <outline>
    <contour>
      <point x="274" y="0" type="curve" smooth="yes"/>
      <point x="1441" y="0" type="line" smooth="yes"/>
      <point x="1940" y="0"/>
      <point x="2174" y="96"/>
      <point x="2174" y="424" type="curve" smooth="yes"/>
      <point x="2174" y="590"/>
      <point x="2064" y="694"/>
      <point x="1910" y="757" type="curve" smooth="yes"/>
      <point x="1895" y="763"/>
      <point x="1894" y="780"/>
      <point x="1907" y="788" type="curve" smooth="yes"/>
      <point x="2009" y="848"/>
      <point x="2076" y="929"/>
      <point x="2076" y="1040" type="curve" smooth="yes"/>
      <point x="2076" y="1339"/>
      <point x="1914" y="1438"/>
      <point x="1486" y="1438" type="curve" smooth="yes"/>
      <point x="274" y="1438" type="line" smooth="yes"/>
      <point x="231" y="1438"/>
      <point x="197" y="1402"/>
      <point x="197" y="1359" type="curve" smooth="yes"/>
      <point x="197" y="77" type="line" smooth="yes"/>
      <point x="197" y="34"/>
      <point x="231" y="0"/>
    </contour>
    <contour>
      <point x="462" y="160" type="line" smooth="yes"/>
      <point x="442" y="160"/>
      <point x="425" y="160"/>
      <point x="425" y="195" type="curve" smooth="yes"/>
      <point x="425" y="625" type="line" smooth="yes"/>
      <point x="425" y="659"/>
      <point x="442" y="664"/>
      <point x="462" y="664" type="curve" smooth="yes"/>
      <point x="1563" y="664" type="line" smooth="yes"/>
      <point x="1774" y="664"/>
      <point x="1940" y="623"/>
      <point x="1940" y="417" type="curve" smooth="yes"/>
      <point x="1940" y="187"/>
      <point x="1696" y="160"/>
      <point x="1509" y="160" type="curve" smooth="yes"/>
    </contour>
    <contour>
      <point x="462" y="834" type="line" smooth="yes"/>
      <point x="442" y="834"/>
      <point x="425" y="863"/>
      <point x="425" y="897" type="curve" smooth="yes"/>
      <point x="425" y="1236" type="line" smooth="yes"/>
      <point x="425" y="1270"/>
      <point x="442" y="1278"/>
      <point x="462" y="1278" type="curve" smooth="yes"/>
      <point x="1500" y="1278" type="line" smooth="yes"/>
      <point x="1666" y="1278"/>
      <point x="1861" y="1273"/>
      <point x="1861" y="1043" type="curve" smooth="yes"/>
      <point x="1861" y="873"/>
      <point x="1742" y="841"/>
      <point x="1580" y="834" type="curve" smooth="yes"/>
    </contour>
  </outline>
</glyph>
<glyph name="C" format="1">
  <advance width="2286"/>
  <unicode hex="0043"/>
  <outline>
    <contour>
      <point x="1158" y="-41" type="curve" smooth="yes"/>
      <point x="1522" y="-41"/>
      <point x="1909" y="48"/>
      <point x="2079" y="392" type="curve"/>
      <point x="2081" y="396"/>
      <point x="2082" y="401"/>
      <point x="2082" y="407" type="curve" smooth="yes"/>
      <point x="2082" y="418"/>
      <point x="2077" y="430"/>
      <point x="2063" y="431" type="curve"/>
      <point x="1898" y="458"/>
      <point x="1895" y="458"/>
      <point x="1892" y="458" type="curve" smooth="yes"/>
      <point x="1861" y="458"/>
      <point x="1852" y="433"/>
      <point x="1844" y="420" type="curve" smooth="yes"/>
      <point x="1704" y="189"/>
      <point x="1449" y="127"/>
      <point x="1158" y="127" type="curve" smooth="yes"/>
      <point x="771" y="127"/>
      <point x="389" y="231"/>
      <point x="389" y="721" type="curve" smooth="yes"/>
      <point x="389" y="1139"/>
      <point x="758" y="1307"/>
      <point x="1158" y="1307" type="curve" smooth="yes"/>
      <point x="1456" y="1307"/>
      <point x="1699" y="1210"/>
      <point x="1843" y="995" type="curve"/>
      <point x="1854" y="978"/>
      <point x="1874" y="972"/>
      <point x="1889" y="972" type="curve" smooth="yes"/>
      <point x="1890" y="972"/>
      <point x="1892" y="972"/>
      <point x="2063" y="996" type="curve"/>
      <point x="2078" y="999"/>
      <point x="2082" y="1007"/>
      <point x="2082" y="1014" type="curve" smooth="yes"/>
      <point x="2082" y="1021"/>
      <point x="2079" y="1028"/>
      <point x="2077" y="1033" type="curve"/>
      <point x="1905" y="1362"/>
      <point x="1522" y="1475"/>
      <point x="1158" y="1475" type="curve" smooth="yes"/>
      <point x="700" y="1475"/>
      <point x="160" y="1293"/>
      <point x="160" y="721" type="curve" smooth="yes"/>
      <point x="160" y="102"/>
      <point x="700" y="-41"/>
    </contour>
  </outline>
</glyph>
<glyph name="D" format="1">
  <advance width="2359"/>
  <unicode hex="0044"/>
  <outline>
    <contour>
      <point x="453" y="160" type="line"/>
      <point x="426" y="182" type="line"/>
      <point x="426" y="1260" type="line"/>
      <point x="447" y="1278" type="line"/>
      <point x="1247" y="1278" type="line" smooth="yes"/>
      <point x="1650" y="1278"/>
      <point x="1959" y="1139"/>
      <point x="1959" y="721" type="curve" smooth="yes"/>
      <point x="1959" y="231"/>
      <point x="1637" y="160"/>
      <point x="1247" y="160" type="curve" smooth="yes"/>
    </contour>
    <contour>
      <point x="265" y="0" type="curve" smooth="yes"/>
      <point x="1247" y="0" type="line" smooth="yes"/>
      <point x="1708" y="0"/>
      <point x="2188" y="102"/>
      <point x="2188" y="721" type="curve" smooth="yes"/>
      <point x="2188" y="1293"/>
      <point x="1708" y="1438"/>
      <point x="1247" y="1438" type="curve" smooth="yes"/>
      <point x="265" y="1438" type="line" smooth="yes"/>
      <point x="222" y="1438"/>
      <point x="198" y="1414"/>
      <point x="198" y="1371" type="curve" smooth="yes"/>
      <point x="198" y="67" type="line" smooth="yes"/>
      <point x="198" y="24"/>
      <point x="222" y="0"/>
    </contour>
  </outline>
</glyph>
<glyph name="E" format="1">
  <advance width="1756"/>
  <unicode hex="0045"/>
  <outline>
    <contour>
      <point x="265" y="0" type="curve" smooth="yes"/>
      <point x="1535" y="0" type="line" smooth="yes"/>
      <point x="1578" y="0"/>
      <point x="1602" y="34"/>
      <point x="1602" y="77" type="curve" smooth="yes"/>
      <point x="1602" y="84" type="line" smooth="yes"/>
      <point x="1602" y="127"/>
      <point x="1578" y="160"/>
      <point x="1535" y="160" type="curve" smooth="yes"/>
      <point x="440" y="160" type="line"/>
      <point x="426" y="177" type="line"/>
      <point x="426" y="646" type="line"/>
      <point x="446" y="663" type="line"/>
      <point x="1427" y="663" type="line" smooth="yes"/>
      <point x="1470" y="663"/>
      <point x="1494" y="697"/>
      <point x="1494" y="740" type="curve" smooth="yes"/>
      <point x="1494" y="746" type="line" smooth="yes"/>
      <point x="1494" y="789"/>
      <point x="1470" y="823"/>
      <point x="1427" y="823" type="curve" smooth="yes"/>
      <point x="440" y="823" type="line"/>
      <point x="426" y="849" type="line"/>
      <point x="426" y="1253" type="line" smooth="yes"/>
      <point x="426" y="1273"/>
      <point x="433" y="1278"/>
      <point x="453" y="1278" type="curve" smooth="yes"/>
      <point x="1507" y="1278" type="line" smooth="yes"/>
      <point x="1550" y="1278"/>
      <point x="1574" y="1312"/>
      <point x="1574" y="1355" type="curve" smooth="yes"/>
      <point x="1574" y="1361" type="line" smooth="yes"/>
      <point x="1574" y="1404"/>
      <point x="1550" y="1438"/>
      <point x="1507" y="1438" type="curve" smooth="yes"/>
      <point x="265" y="1438" type="line" smooth="yes"/>
      <point x="222" y="1438"/>
      <point x="198" y="1404"/>
      <point x="198" y="1361" type="curve" smooth="yes"/>
      <point x="198" y="67" type="line" smooth="yes"/>
      <point x="198" y="24"/>
      <point x="222" y="0"/>
    </contour>
  </outline>
</glyph>
<glyph name="F" format="1">
  <advance width="1720"/>
  <unicode hex="0046"/>
  <outline>
    <contour>
      <point x="265" y="0" type="curve" smooth="yes"/>
      <point x="359" y="0" type="line" smooth="yes"/>
      <point x="402" y="0"/>
      <point x="426" y="24"/>
      <point x="426" y="67" type="curve" smooth="yes"/>
      <point x="426" y="577" type="line"/>
      <point x="441" y="594" type="line"/>
      <point x="1377" y="594" type="line" smooth="yes"/>
      <point x="1420" y="594"/>
      <point x="1444" y="628"/>
      <point x="1444" y="671" type="curve" smooth="yes"/>
      <point x="1444" y="698" type="line" smooth="yes"/>
      <point x="1444" y="741"/>
      <point x="1420" y="775"/>
      <point x="1377" y="775" type="curve" smooth="yes"/>
      <point x="436" y="775" type="line"/>
      <point x="426" y="783" type="line"/>
      <point x="426" y="1253" type="line" smooth="yes"/>
      <point x="426" y="1273"/>
      <point x="428" y="1278"/>
      <point x="448" y="1278" type="curve" smooth="yes"/>
      <point x="1507" y="1278" type="line" smooth="yes"/>
      <point x="1550" y="1278"/>
      <point x="1574" y="1312"/>
      <point x="1574" y="1355" type="curve" smooth="yes"/>
      <point x="1574" y="1361" type="line" smooth="yes"/>
      <point x="1574" y="1404"/>
      <point x="1550" y="1438"/>
      <point x="1507" y="1438" type="curve" smooth="yes"/>
      <point x="265" y="1438" type="line" smooth="yes"/>
      <point x="222" y="1438"/>
      <point x="198" y="1404"/>
      <point x="198" y="1361" type="curve" smooth="yes"/>
      <point x="198" y="67" type="line" smooth="yes"/>
      <point x="198" y="24"/>
      <point x="222" y="0"/>
    </contour>
  </outline>
</glyph>
<glyph name="G" format="1">
  <advance width="2444"/>
  <unicode hex="0047"/>
  <outline>
    <contour>
      <point x="1160" y="-41" type="curve" smooth="yes"/>
      <point x="1442" y="-41"/>
      <point x="1774" y="31"/>
      <point x="1967" y="265" type="curve"/>
      <point x="1974" y="271"/>
      <point x="1978" y="275"/>
      <point x="1981" y="275" type="curve" smooth="yes"/>
      <point x="1987" y="275"/>
      <point x="1989" y="259"/>
      <point x="1990" y="252" type="curve" smooth="yes"/>
      <point x="1999" y="199"/>
      <point x="2009" y="100"/>
      <point x="2018" y="70" type="curve" smooth="yes"/>
      <point x="2031" y="27"/>
      <point x="2054" y="0"/>
      <point x="2100" y="0" type="curve" smooth="yes"/>
      <point x="2143" y="0"/>
      <point x="2167" y="34"/>
      <point x="2167" y="77" type="curve" smooth="yes"/>
      <point x="2167" y="683" type="line" smooth="yes"/>
      <point x="2167" y="726"/>
      <point x="2133" y="760"/>
      <point x="2090" y="760" type="curve" smooth="yes"/>
      <point x="1336" y="760" type="line" smooth="yes"/>
      <point x="1293" y="760"/>
      <point x="1259" y="734"/>
      <point x="1259" y="691" type="curve" smooth="yes"/>
      <point x="1259" y="674" type="line" smooth="yes"/>
      <point x="1259" y="631"/>
      <point x="1293" y="605"/>
      <point x="1336" y="605" type="curve" smooth="yes"/>
      <point x="1925" y="605" type="line" smooth="yes"/>
      <point x="1941" y="605"/>
      <point x="1947" y="579"/>
      <point x="1947" y="563" type="curve" smooth="yes"/>
      <point x="1947" y="315"/>
      <point x="1565" y="127"/>
      <point x="1160" y="127" type="curve" smooth="yes"/>
      <point x="773" y="127"/>
      <point x="389" y="231"/>
      <point x="389" y="721" type="curve" smooth="yes"/>
      <point x="389" y="1139"/>
      <point x="760" y="1307"/>
      <point x="1160" y="1307" type="curve" smooth="yes"/>
      <point x="1458" y="1307"/>
      <point x="1722" y="1215"/>
      <point x="1850" y="1028" type="curve" smooth="yes"/>
      <point x="1855" y="1020"/>
      <point x="1884" y="972"/>
      <point x="1941" y="972" type="curve" smooth="yes"/>
      <point x="1947" y="972"/>
      <point x="2095" y="998"/>
      <point x="2095" y="998" type="curve" smooth="yes"/>
      <point x="2107" y="1000"/>
      <point x="2113" y="1008"/>
      <point x="2113" y="1017" type="curve" smooth="yes"/>
      <point x="2113" y="1022"/>
      <point x="2112" y="1027"/>
      <point x="2109" y="1033" type="curve"/>
      <point x="1937" y="1362"/>
      <point x="1524" y="1475"/>
      <point x="1160" y="1475" type="curve" smooth="yes"/>
      <point x="702" y="1475"/>
      <point x="160" y="1293"/>
      <point x="160" y="721" type="curve" smooth="yes"/>
      <point x="160" y="102"/>
      <point x="702" y="-41"/>
    </contour>
  </outline>
</glyph>
<glyph name="H" format="1">
  <advance width="2118"/>
  <unicode hex="0048"/>
  <outline>
    <contour>
      <point x="267" y="0" type="curve" smooth="yes"/>
      <point x="361" y="0" type="line" smooth="yes"/>
      <point x="404" y="0"/>
      <point x="428" y="24"/>
      <point x="428" y="67" type="curve" smooth="yes"/>
      <point x="428" y="647" type="line"/>
      <point x="444" y="663" type="line"/>
      <point x="1674" y="663" type="line"/>
      <point x="1690" y="645" type="line"/>
      <point x="1690" y="67" type="line" smooth="yes"/>
      <point x="1690" y="24"/>
      <point x="1714" y="0"/>
      <point x="1757" y="0" type="curve" smooth="yes"/>
      <point x="1851" y="0" type="line" smooth="yes"/>
      <point x="1894" y="0"/>
      <point x="1918" y="24"/>
      <point x="1918" y="67" type="curve" smooth="yes"/>
      <point x="1918" y="1371" type="line" smooth="yes"/>
      <point x="1918" y="1414"/>
      <point x="1894" y="1438"/>
      <point x="1851" y="1438" type="curve" smooth="yes"/>
      <point x="1757" y="1438" type="line" smooth="yes"/>
      <point x="1714" y="1438"/>
      <point x="1690" y="1414"/>
      <point x="1690" y="1371" type="curve" smooth="yes"/>
      <point x="1690" y="841" type="line"/>
      <point x="1672" y="823" type="line"/>
      <point x="442" y="823" type="line"/>
      <point x="428" y="838" type="line"/>
      <point x="428" y="1371" type="line" smooth="yes"/>
      <point x="428" y="1414"/>
      <point x="404" y="1438"/>
      <point x="361" y="1438" type="curve" smooth="yes"/>
      <point x="267" y="1438" type="line" smooth="yes"/>
      <point x="224" y="1438"/>
      <point x="200" y="1414"/>
      <point x="200" y="1371" type="curve" smooth="yes"/>
      <point x="200" y="67" type="line" smooth="yes"/>
      <point x="200" y="24"/>
      <point x="224" y="0"/>
    </contour>
  </outline>
</glyph>
<glyph name="J" format="1">
  <advance width="1281"/>
  <unicode hex="004A"/>
  <outline>
    <contour>
      <point x="168" y="-141" type="curve" smooth="yes"/>
      <point x="629" y="-141"/>
      <point x="1088" y="-68"/>
      <point x="1088" y="551" type="curve" smooth="yes"/>
      <point x="1088" y="1371" type="line" smooth="yes"/>
      <point x="1088" y="1414"/>
      <point x="1064" y="1438"/>
      <point x="1021" y="1438" type="curve" smooth="yes"/>
      <point x="927" y="1438" type="line" smooth="yes"/>
      <point x="884" y="1438"/>
      <point x="860" y="1414"/>
      <point x="860" y="1371" type="curve" smooth="yes"/>
      <point x="860" y="551" type="line" smooth="yes"/>
      <point x="860" y="61"/>
      <point x="558" y="35"/>
      <point x="168" y="35" type="curve" smooth="yes"/>
      <point x="155" y="35"/>
      <point x="137" y="21"/>
      <point x="137" y="-19" type="curve" smooth="yes"/>
      <point x="137" y="-22"/>
      <point x="137" y="-85"/>
      <point x="137" y="-88" type="curve" smooth="yes"/>
      <point x="137" y="-123"/>
      <point x="153" y="-141"/>
    </contour>
  </outline>
</glyph>
<glyph name="K" format="1">
  <advance width="1646"/>
  <unicode hex="004B"/>
  <outline>
    <contour>
      <point x="359" y="0" type="line" smooth="yes"/>
      <point x="402" y="0"/>
      <point x="426" y="24"/>
      <point x="426" y="67" type="curve" smooth="yes"/>
      <point x="426" y="735" type="line"/>
      <point x="1206" y="67" type="line" smooth="yes"/>
      <point x="1245" y="32"/>
      <point x="1275" y="0"/>
      <point x="1318" y="0" type="curve" smooth="yes"/>
      <point x="1486" y="0" type="line" smooth="yes"/>
      <point x="1529" y="0"/>
      <point x="1546" y="32"/>
      <point x="1508" y="67" type="curve" smooth="yes"/>
      <point x="711" y="736" type="line" smooth="yes"/>
      <point x="705" y="741"/>
      <point x="703" y="745"/>
      <point x="703" y="748" type="curve" smooth="yes"/>
      <point x="703" y="753"/>
      <point x="707" y="757"/>
      <point x="710" y="759" type="curve" smooth="yes"/>
      <point x="1436" y="1365" type="line" smooth="yes"/>
      <point x="1474" y="1399"/>
      <point x="1454" y="1438"/>
      <point x="1411" y="1438" type="curve" smooth="yes"/>
      <point x="1254" y="1438" type="line" smooth="yes"/>
      <point x="1211" y="1438"/>
      <point x="1182" y="1410"/>
      <point x="1145" y="1376" type="curve" smooth="yes"/>
      <point x="426" y="762" type="line"/>
      <point x="426" y="1371" type="line" smooth="yes"/>
      <point x="426" y="1414"/>
      <point x="402" y="1438"/>
      <point x="359" y="1438" type="curve" smooth="yes"/>
      <point x="265" y="1438" type="line" smooth="yes"/>
      <point x="222" y="1438"/>
      <point x="198" y="1414"/>
      <point x="198" y="1371" type="curve" smooth="yes"/>
      <point x="198" y="67" type="line" smooth="yes"/>
      <point x="198" y="24"/>
      <point x="222" y="0"/>
      <point x="265" y="0" type="curve" smooth="yes"/>
    </contour>
  </outline>
</glyph>
<glyph name="L" format="1">
  <advance width="1430"/>
  <unicode hex="004C"/>
  <outline>
    <contour>
      <point x="265" y="0" type="curve" smooth="yes"/>
      <point x="1248" y="0" type="line" smooth="yes"/>
      <point x="1291" y="0"/>
      <point x="1315" y="24"/>
      <point x="1315" y="67" type="curve" smooth="yes"/>
      <point x="1315" y="94" type="line" smooth="yes"/>
      <point x="1315" y="137"/>
      <point x="1291" y="160"/>
      <point x="1248" y="160" type="curve" smooth="yes"/>
      <point x="463" y="160" type="line" smooth="yes"/>
      <point x="443" y="160"/>
      <point x="426" y="177"/>
      <point x="426" y="197" type="curve" smooth="yes"/>
      <point x="426" y="1371" type="line" smooth="yes"/>
      <point x="426" y="1414"/>
      <point x="402" y="1438"/>
      <point x="359" y="1438" type="curve" smooth="yes"/>
      <point x="265" y="1438" type="line" smooth="yes"/>
      <point x="222" y="1438"/>
      <point x="198" y="1414"/>
      <point x="198" y="1371" type="curve" smooth="yes"/>
      <point x="198" y="67" type="line" smooth="yes"/>
      <point x="198" y="24"/>
      <point x="222" y="0"/>
    </contour>
  </outline>
</glyph>
<glyph name="O" format="1">
  <advance width="2331"/>
  <unicode hex="004F"/>
  <outline>
    <contour>
      <point x="1165" y="127" type="curve" smooth="yes"/>
      <point x="778" y="127"/>
      <point x="394" y="234"/>
      <point x="394" y="724" type="curve" smooth="yes"/>
      <point x="394" y="1142"/>
      <point x="765" y="1307"/>
      <point x="1165" y="1307" type="curve" smooth="yes"/>
      <point x="1568" y="1307"/>
      <point x="1937" y="1142"/>
      <point x="1937" y="724" type="curve" smooth="yes"/>
      <point x="1937" y="234"/>
      <point x="1555" y="127"/>
    </contour>
    <contour>
      <point x="1165" y="-41" type="curve" smooth="yes"/>
      <point x="1626" y="-41"/>
      <point x="2166" y="105"/>
      <point x="2166" y="724" type="curve" smooth="yes"/>
      <point x="2166" y="1296"/>
      <point x="1626" y="1475"/>
      <point x="1165" y="1475" type="curve" smooth="yes"/>
      <point x="707" y="1475"/>
      <point x="165" y="1296"/>
      <point x="165" y="724" type="curve" smooth="yes"/>
      <point x="165" y="105"/>
      <point x="707" y="-41"/>
    </contour>
  </outline>
</glyph>
<glyph name="P" format="1">
  <advance width="2194"/>
  <unicode hex="0050"/>
  <outline>
    <contour>
      <point x="265" y="0" type="curve" smooth="yes"/>
      <point x="359" y="0" type="line" smooth="yes"/>
      <point x="402" y="0"/>
      <point x="426" y="24"/>
      <point x="426" y="67" type="curve" smooth="yes"/>
      <point x="426" y="422" type="line"/>
      <point x="445" y="442" type="line"/>
      <point x="1116" y="442" type="line" smooth="yes"/>
      <point x="1647" y="442"/>
      <point x="2028" y="444"/>
      <point x="2028" y="964" type="curve" smooth="yes"/>
      <point x="2028" y="1438"/>
      <point x="1518" y="1438"/>
      <point x="1057" y="1438" type="curve" smooth="yes"/>
      <point x="265" y="1438" type="line" smooth="yes"/>
      <point x="222" y="1438"/>
      <point x="198" y="1414"/>
      <point x="198" y="1371" type="curve" smooth="yes"/>
      <point x="198" y="67" type="line" smooth="yes"/>
      <point x="198" y="24"/>
      <point x="222" y="0"/>
    </contour>
    <contour>
      <point x="442" y="618" type="line"/>
      <point x="426" y="639" type="line"/>
      <point x="426" y="1262" type="line"/>
      <point x="443" y="1278" type="line"/>
      <point x="1057" y="1278" type="line" smooth="yes"/>
      <point x="1460" y="1278"/>
      <point x="1799" y="1261"/>
      <point x="1799" y="964" type="curve" smooth="yes"/>
      <point x="1799" y="618"/>
      <point x="1604" y="618"/>
      <point x="1107" y="618" type="curve" smooth="yes"/>
    </contour>
  </outline>
</glyph>
<glyph name="Q" format="1">
  <advance width="2371"/>
  <unicode hex="0051"/>
  <outline>
    <contour>
      <point x="1563" y="-415" type="curve" smooth="yes"/>
      <point x="1599" y="-389" type="line" smooth="yes"/>
      <point x="1633" y="-364"/>
      <point x="1641" y="-316"/>
      <point x="1614" y="-282" type="curve" smooth="yes"/>
      <point x="1344" y="90" type="line" smooth="yes"/>
      <point x="1318" y="124"/>
      <point x="1271" y="131"/>
      <point x="1235" y="106" type="curve" smooth="yes"/>
      <point x="1199" y="80" type="line" smooth="yes"/>
      <point x="1165" y="55"/>
      <point x="1157" y="7"/>
      <point x="1184" y="-27" type="curve" smooth="yes"/>
      <point x="1454" y="-399" type="line" smooth="yes"/>
      <point x="1480" y="-433"/>
      <point x="1527" y="-440"/>
    </contour>
    <component base="O"/>
  </outline>
</glyph>
<glyph name="R" format="1">
  <advance width="2258"/>
  <unicode hex="0052"/>
  <outline>
    <contour>
      <point x="265" y="0" type="curve" smooth="yes"/>
      <point x="359" y="0" type="line" smooth="yes"/>
      <point x="402" y="0"/>
      <point x="426" y="24"/>
      <point x="426" y="67" type="curve" smooth="yes"/>
      <point x="426" y="522" type="line"/>
      <point x="442" y="538" type="line"/>
      <point x="1283" y="538" type="line" smooth="yes"/>
      <point x="1375" y="538"/>
      <point x="1602" y="536"/>
      <point x="1697" y="333" type="curve" smooth="yes"/>
      <point x="1821" y="67" type="line"/>
      <point x="1843" y="28"/>
      <point x="1851" y="0"/>
      <point x="1894" y="0" type="curve" smooth="yes"/>
      <point x="1999" y="0" type="line" smooth="yes"/>
      <point x="2042" y="0"/>
      <point x="2082" y="27"/>
      <point x="2060" y="67" type="curve"/>
      <point x="1936" y="347" type="line" smooth="yes"/>
      <point x="1860" y="517"/>
      <point x="1741" y="559"/>
      <point x="1683" y="578" type="curve"/>
      <point x="1679" y="580"/>
      <point x="1678" y="582"/>
      <point x="1678" y="583" type="curve" smooth="yes"/>
      <point x="1678" y="585"/>
      <point x="1681" y="585"/>
      <point x="1684" y="586" type="curve"/>
      <point x="1898" y="632"/>
      <point x="2028" y="725"/>
      <point x="2028" y="1014" type="curve" smooth="yes"/>
      <point x="2028" y="1439"/>
      <point x="1583" y="1438"/>
      <point x="1057" y="1438" type="curve" smooth="yes"/>
      <point x="265" y="1438" type="line" smooth="yes"/>
      <point x="222" y="1438"/>
      <point x="198" y="1414"/>
      <point x="198" y="1371" type="curve" smooth="yes"/>
      <point x="198" y="67" type="line" smooth="yes"/>
      <point x="198" y="24"/>
      <point x="222" y="0"/>
    </contour>
    <contour>
      <point x="442" y="708" type="line"/>
      <point x="426" y="721" type="line"/>
      <point x="426" y="1264" type="line"/>
      <point x="443" y="1278" type="line"/>
      <point x="1057" y="1278" type="line" smooth="yes"/>
      <point x="1505" y="1278"/>
      <point x="1799" y="1262"/>
      <point x="1799" y="1014" type="curve" smooth="yes"/>
      <point x="1799" y="708"/>
      <point x="1604" y="708"/>
      <point x="1107" y="708" type="curve" smooth="yes"/>
    </contour>
  </outline>
</glyph>
<glyph name="S" format="1">
  <advance width="2402"/>
  <unicode hex="0053"/>
  <outline>
    <contour>
      <point x="1208" y="-41" type="curve" smooth="yes"/>
      <point x="1842" y="-41"/>
      <point x="2231" y="30"/>
      <point x="2231" y="448" type="curve" smooth="yes"/>
      <point x="2231" y="791"/>
      <point x="1784" y="842"/>
      <point x="1357" y="842" type="curve" smooth="yes"/>
      <point x="549" y="842"/>
      <point x="439" y="935"/>
      <point x="439" y="1066" type="curve" smooth="yes"/>
      <point x="439" y="1223"/>
      <point x="665" y="1307"/>
      <point x="1163" y="1307" type="curve" smooth="yes"/>
      <point x="1672" y="1307"/>
      <point x="1917" y="1174"/>
      <point x="1988" y="1174" type="curve" smooth="yes"/>
      <point x="2060" y="1174"/>
      <point x="2070" y="1233"/>
      <point x="2070" y="1233" type="curve"/>
      <point x="2075" y="1242"/>
      <point x="2077" y="1253"/>
      <point x="2077" y="1263" type="curve" smooth="yes"/>
      <point x="2077" y="1291"/>
      <point x="2060" y="1319"/>
      <point x="2033" y="1329" type="curve" smooth="yes"/>
      <point x="1767" y="1431"/>
      <point x="1519" y="1475"/>
      <point x="1165" y="1475" type="curve" smooth="yes"/>
      <point x="663" y="1475"/>
      <point x="185" y="1409"/>
      <point x="185" y="1043" type="curve" smooth="yes"/>
      <point x="185" y="717"/>
      <point x="611" y="647"/>
      <point x="1304" y="647" type="curve" smooth="yes"/>
      <point x="1923" y="647"/>
      <point x="2006" y="577"/>
      <point x="2006" y="422" type="curve" smooth="yes"/>
      <point x="2006" y="261"/>
      <point x="1880" y="127"/>
      <point x="1233" y="127" type="curve" smooth="yes"/>
      <point x="648" y="127"/>
      <point x="347" y="271"/>
      <point x="271" y="271" type="curve" smooth="yes"/>
      <point x="237" y="271"/>
      <point x="212" y="258"/>
      <point x="197" y="226" type="curve"/>
      <point x="197" y="226"/>
      <point x="182" y="182"/>
      <point x="182" y="173" type="curve" smooth="yes"/>
      <point x="182" y="144"/>
      <point x="200" y="116"/>
      <point x="228" y="106" type="curve" smooth="yes"/>
      <point x="556" y="-11"/>
      <point x="868" y="-41"/>
    </contour>
  </outline>
</glyph>
<glyph name="T" format="1">
  <advance width="1703"/>
  <unicode hex="0054"/>
  <outline>
    <contour>
      <point x="806" y="0" type="curve" smooth="yes"/>
      <point x="900" y="0" type="line" smooth="yes"/>
      <point x="943" y="0"/>
      <point x="967" y="24"/>
      <point x="967" y="67" type="curve" smooth="yes"/>
      <point x="967" y="1253" type="line" smooth="yes"/>
      <point x="967" y="1273"/>
      <point x="974" y="1278"/>
      <point x="994" y="1278" type="curve" smooth="yes"/>
      <point x="1524" y="1278" type="line" smooth="yes"/>
      <point x="1567" y="1278"/>
      <point x="1591" y="1312"/>
      <point x="1591" y="1355" type="curve" smooth="yes"/>
      <point x="1591" y="1361" type="line" smooth="yes"/>
      <point x="1591" y="1404"/>
      <point x="1567" y="1438"/>
      <point x="1524" y="1438" type="curve" smooth="yes"/>
      <point x="179" y="1438" type="line" smooth="yes"/>
      <point x="136" y="1438"/>
      <point x="112" y="1404"/>
      <point x="112" y="1361" type="curve" smooth="yes"/>
      <point x="112" y="1355" type="line" smooth="yes"/>
      <point x="112" y="1312"/>
      <point x="136" y="1278"/>
      <point x="179" y="1278" type="curve" smooth="yes"/>
      <point x="712" y="1278" type="line" smooth="yes"/>
      <point x="732" y="1278"/>
      <point x="739" y="1273"/>
      <point x="739" y="1253" type="curve" smooth="yes"/>
      <point x="739" y="67" type="line" smooth="yes"/>
      <point x="739" y="24"/>
      <point x="763" y="0"/>
    </contour>
  </outline>
</glyph>
<glyph name="U" format="1">
  <advance width="2416"/>
  <unicode hex="0055"/>
  <outline>
    <contour>
      <point x="1208" y="-41" type="curve" smooth="yes"/>
      <point x="1669" y="-41"/>
      <point x="2228" y="32"/>
      <point x="2228" y="651" type="curve" smooth="yes"/>
      <point x="2228" y="1371" type="line" smooth="yes"/>
      <point x="2228" y="1414"/>
      <point x="2204" y="1438"/>
      <point x="2161" y="1438" type="curve" smooth="yes"/>
      <point x="2067" y="1438" type="line" smooth="yes"/>
      <point x="2024" y="1438"/>
      <point x="2000" y="1414"/>
      <point x="2000" y="1371" type="curve" smooth="yes"/>
      <point x="2000" y="651" type="line" smooth="yes"/>
      <point x="2000" y="161"/>
      <point x="1598" y="127"/>
      <point x="1208" y="127" type="curve" smooth="yes"/>
      <point x="821" y="127"/>
      <point x="417" y="161"/>
      <point x="417" y="651" type="curve" smooth="yes"/>
      <point x="417" y="1371" type="line" smooth="yes"/>
      <point x="417" y="1414"/>
      <point x="393" y="1438"/>
      <point x="350" y="1438" type="curve" smooth="yes"/>
      <point x="256" y="1438" type="line" smooth="yes"/>
      <point x="213" y="1438"/>
      <point x="188" y="1414"/>
      <point x="188" y="1371" type="curve" smooth="yes"/>
      <point x="188" y="651" type="line" smooth="yes"/>
      <point x="188" y="32"/>
      <point x="750" y="-41"/>
    </contour>
  </outline>
</glyph>
<glyph name="V" format="1">
  <advance width="2016.52270917"/>
  <unicode hex="0056"/>
  <outline>
    <contour>
      <point x="985.485388678" y="0" type="curve"/>
      <point x="1093.48538868" y="0" type="line"/>
      <point x="1133.48538868" y="3"/>
      <point x="1166.48538868" y="26"/>
      <point x="1187.48538868" y="67" type="curve" smooth="yes"/>
      <point x="1878.48538868" y="1371" type="line" smooth="yes"/>
      <point x="1900.48538868" y="1414"/>
      <point x="1889.48538868" y="1438"/>
      <point x="1846.48538868" y="1438" type="curve" smooth="yes"/>
      <point x="1732.48538868" y="1438" type="line" smooth="yes"/>
      <point x="1689.48538868" y="1438"/>
      <point x="1651.48538868" y="1414"/>
      <point x="1630.48538868" y="1371" type="curve" smooth="yes"/>
      <point x="1040.48538868" y="192" type="line"/>
      <point x="398.485388678" y="1371" type="line" smooth="yes"/>
      <point x="374.485388678" y="1414"/>
      <point x="335.485388678" y="1438"/>
      <point x="292.485388678" y="1438" type="curve" smooth="yes"/>
      <point x="168.485388678" y="1438" type="line" smooth="yes"/>
      <point x="125.485388678" y="1438"/>
      <point x="115.485388678" y="1414"/>
      <point x="140.485388678" y="1371" type="curve" smooth="yes"/>
      <point x="886.485388678" y="67" type="line" smooth="yes"/>
      <point x="910.485388678" y="26"/>
      <point x="945.485388678" y="3"/>
    </contour>
  </outline>
</glyph>
<glyph name="W" format="1">
  <advance width="3365.52270917"/>
  <unicode hex="0057"/>
  <outline>
    <contour>
      <point x="910.485388678" y="0" type="curve"/>
      <point x="1028.48538868" y="0" type="line"/>
      <point x="1068.48538868" y="3"/>
      <point x="1102.48538868" y="26"/>
      <point x="1122.48538868" y="67" type="curve" smooth="yes"/>
      <point x="1687.48538868" y="1251" type="line"/>
      <point x="2300.48538868" y="67" type="line" smooth="yes"/>
      <point x="2322.48538868" y="25"/>
      <point x="2359.48538868" y="3"/>
      <point x="2399.48538868" y="0" type="curve"/>
      <point x="2517.48538868" y="0" type="line"/>
      <point x="2557.48538868" y="3"/>
      <point x="2590.48538868" y="26"/>
      <point x="2611.48538868" y="67" type="curve" smooth="yes"/>
      <point x="3222.48538868" y="1371" type="line" smooth="yes"/>
      <point x="3244.48538868" y="1414"/>
      <point x="3233.48538868" y="1438"/>
      <point x="3190.48538868" y="1438" type="curve" smooth="yes"/>
      <point x="3076.48538868" y="1438" type="line" smooth="yes"/>
      <point x="3033.48538868" y="1438"/>
      <point x="2995.48538868" y="1414"/>
      <point x="2974.48538868" y="1371" type="curve" smooth="yes"/>
      <point x="2464.48538868" y="192" type="line"/>
      <point x="1852.48538868" y="1371" type="line" smooth="yes"/>
      <point x="1828.48538868" y="1414"/>
      <point x="1789.48538868" y="1438"/>
      <point x="1746.48538868" y="1438" type="curve" smooth="yes"/>
      <point x="1622.48538868" y="1438" type="line" smooth="yes"/>
      <point x="1584.48538868" y="1438"/>
      <point x="1546.48538868" y="1414"/>
      <point x="1525.48538868" y="1371" type="curve" smooth="yes"/>
      <point x="965.485388678" y="192" type="line"/>
      <point x="403.485388678" y="1371" type="line"/>
      <point x="379.485388678" y="1414"/>
      <point x="340.485388678" y="1438"/>
      <point x="297.485388678" y="1438" type="curve" smooth="yes"/>
      <point x="173.485388678" y="1438" type="line" smooth="yes"/>
      <point x="130.485388678" y="1438"/>
      <point x="120.485388678" y="1414"/>
      <point x="145.485388678" y="1371" type="curve"/>
      <point x="811.485388678" y="67" type="line"/>
      <point x="835.485388678" y="26"/>
      <point x="870.485388678" y="3"/>
    </contour>
  </outline>
</glyph>
<glyph name="Y" format="1">
  <advance width="1735"/>
  <unicode hex="0059"/>
  <outline>
    <contour>
      <point x="822" y="0" type="curve" smooth="yes"/>
      <point x="916" y="0" type="line" smooth="yes"/>
      <point x="959" y="0"/>
      <point x="983" y="24"/>
      <point x="983" y="67" type="curve" smooth="yes"/>
      <point x="983" y="717" type="line"/>
      <point x="1604" y="1371" type="line"/>
      <point x="1624" y="1389"/>
      <point x="1631" y="1407"/>
      <point x="1631" y="1418" type="curve" smooth="yes"/>
      <point x="1631" y="1431"/>
      <point x="1620" y="1438"/>
      <point x="1597" y="1438" type="curve" smooth="yes"/>
      <point x="1453" y="1438" type="line" smooth="yes"/>
      <point x="1410" y="1438"/>
      <point x="1365" y="1414"/>
      <point x="1326" y="1371" type="curve" smooth="yes"/>
      <point x="874" y="882" type="line"/>
      <point x="414" y="1371" type="line" smooth="yes"/>
      <point x="371" y="1414"/>
      <point x="324" y="1438"/>
      <point x="281" y="1438" type="curve" smooth="yes"/>
      <point x="137" y="1438" type="line" smooth="yes"/>
      <point x="115" y="1438"/>
      <point x="104" y="1432"/>
      <point x="104" y="1420" type="curve" smooth="yes"/>
      <point x="104" y="1409"/>
      <point x="114" y="1391"/>
      <point x="136" y="1371" type="curve"/>
      <point x="755" y="713" type="line"/>
      <point x="755" y="67" type="line" smooth="yes"/>
      <point x="755" y="24"/>
      <point x="779" y="0"/>
    </contour>
  </outline>
</glyph>
<glyph name="Z" format="1">
  <advance width="1745"/>
  <unicode hex="005A"/>
  <outline>
    <contour>
      <point x="1501" y="0" type="line" smooth="yes"/>
      <point x="1544" y="0"/>
      <point x="1568" y="34"/>
      <point x="1568" y="77" type="curve" smooth="yes"/>
      <point x="1568" y="83" type="line" smooth="yes"/>
      <point x="1568" y="126"/>
      <point x="1544" y="160"/>
      <point x="1501" y="160" type="curve" smooth="yes"/>
      <point x="518" y="160" type="line"/>
      <point x="503" y="160"/>
      <point x="497" y="166"/>
      <point x="497" y="174" type="curve" smooth="yes"/>
      <point x="497" y="182"/>
      <point x="503" y="192"/>
      <point x="512" y="202" type="curve" smooth="yes"/>
      <point x="1515" y="1226" type="line" smooth="yes"/>
      <point x="1530" y="1240"/>
      <point x="1548" y="1285"/>
      <point x="1548" y="1328" type="curve" smooth="yes"/>
      <point x="1548" y="1361" type="line" smooth="yes"/>
      <point x="1548" y="1404"/>
      <point x="1524" y="1438"/>
      <point x="1481" y="1438" type="curve" smooth="yes"/>
      <point x="253" y="1438" type="line" smooth="yes"/>
      <point x="210" y="1438"/>
      <point x="186" y="1404"/>
      <point x="186" y="1361" type="curve" smooth="yes"/>
      <point x="186" y="1355" type="line" smooth="yes"/>
      <point x="186" y="1312"/>
      <point x="210" y="1278"/>
      <point x="253" y="1278" type="curve" smooth="yes"/>
      <point x="1212" y="1278" type="line" smooth="yes"/>
      <point x="1240" y="1278"/>
      <point x="1250" y="1269"/>
      <point x="1250" y="1258" type="curve" smooth="yes"/>
      <point x="1250" y="1248"/>
      <point x="1243" y="1237"/>
      <point x="1233" y="1226" type="curve" smooth="yes"/>
      <point x="197" y="169" type="line" smooth="yes"/>
      <point x="183" y="155"/>
      <point x="176" y="134"/>
      <point x="176" y="110" type="curve" smooth="yes"/>
      <point x="176" y="77" type="line" smooth="yes"/>
      <point x="176" y="34"/>
      <point x="200" y="0"/>
      <point x="243" y="0" type="curve" smooth="yes"/>
    </contour>
  </outline>
</glyph>
<glyph name="bracketleft" format="1">
  <advance width="1085"/>
  <unicode hex="005B"/>
  <outline>
    <contour>
      <point x="276" y="-65" type="curve" smooth="yes"/>
      <point x="848" y="-65" type="line" smooth="yes"/>
      <point x="891" y="-65"/>
      <point x="915" y="-51"/>
      <point x="915" y="-8" type="curve" smooth="yes"/>
      <point x="915" y="41" type="line" smooth="yes"/>
      <point x="915" y="84"/>
      <point x="891" y="98"/>
      <point x="848" y="98" type="curve" smooth="yes"/>
      <point x="454" y="98" type="line" smooth="yes"/>
      <point x="434" y="98"/>
      <point x="427" y="105"/>
      <point x="427" y="125" type="curve" smooth="yes"/>
      <point x="427" y="1317" type="line" smooth="yes"/>
      <point x="427" y="1337"/>
      <point x="434" y="1344"/>
      <point x="454" y="1344" type="curve" smooth="yes"/>
      <point x="848" y="1344" type="line" smooth="yes"/>
      <point x="891" y="1344"/>
      <point x="915" y="1358"/>
      <point x="915" y="1401" type="curve" smooth="yes"/>
      <point x="915" y="1460" type="line" smooth="yes"/>
      <point x="915" y="1503"/>
      <point x="891" y="1517"/>
      <point x="848" y="1517" type="curve" smooth="yes"/>
      <point x="276" y="1517" type="line" smooth="yes"/>
      <point x="233" y="1517"/>
      <point x="199" y="1483"/>
      <point x="199" y="1440" type="curve" smooth="yes"/>
      <point x="199" y="12" type="line" smooth="yes"/>
      <point x="199" y="-31"/>
      <point x="233" y="-65"/>
    </contour>
  </outline>
</glyph>
<glyph name="backslash" format="1">
  <advance width="1166"/>
  <unicode hex="005C"/>
  <outline>
    <contour>
      <point x="869" y="-205" type="curve" smooth="yes"/>
      <point x="1032" y="-205" type="line" smooth="yes"/>
      <point x="1050" y="-205"/>
      <point x="1062" y="-187"/>
      <point x="1056" y="-170" type="curve" smooth="yes"/>
      <point x="369" y="1612" type="line" smooth="yes"/>
      <point x="361" y="1633"/>
      <point x="341" y="1647"/>
      <point x="319" y="1647" type="curve" smooth="yes"/>
      <point x="156" y="1647" type="line" smooth="yes"/>
      <point x="138" y="1647"/>
      <point x="126" y="1629"/>
      <point x="132" y="1612" type="curve" smooth="yes"/>
      <point x="819" y="-170" type="line" smooth="yes"/>
      <point x="827" y="-191"/>
      <point x="847" y="-205"/>
    </contour>
  </outline>
</glyph>
<glyph name="bracketright" format="1">
  <advance width="1091"/>
  <unicode hex="005D"/>
  <outline>
    <contour>
      <point x="240" y="-65" type="curve" smooth="yes"/>
      <point x="812" y="-65" type="line" smooth="yes"/>
      <point x="855" y="-65"/>
      <point x="889" y="-31"/>
      <point x="889" y="12" type="curve" smooth="yes"/>
      <point x="889" y="1440" type="line" smooth="yes"/>
      <point x="889" y="1483"/>
      <point x="855" y="1517"/>
      <point x="812" y="1517" type="curve" smooth="yes"/>
      <point x="240" y="1517" type="line" smooth="yes"/>
      <point x="197" y="1517"/>
      <point x="173" y="1503"/>
      <point x="173" y="1460" type="curve" smooth="yes"/>
      <point x="173" y="1411" type="line" smooth="yes"/>
      <point x="173" y="1368"/>
      <point x="197" y="1354"/>
      <point x="240" y="1354" type="curve" smooth="yes"/>
      <point x="634" y="1354" type="line" smooth="yes"/>
      <point x="654" y="1354"/>
      <point x="661" y="1347"/>
      <point x="661" y="1327" type="curve" smooth="yes"/>
      <point x="661" y="135" type="line" smooth="yes"/>
      <point x="661" y="115"/>
      <point x="654" y="108"/>
      <point x="634" y="108" type="curve" smooth="yes"/>
      <point x="240" y="108" type="line" smooth="yes"/>
      <point x="197" y="108"/>
      <point x="173" y="94"/>
      <point x="173" y="51" type="curve" smooth="yes"/>
      <point x="173" y="-8" type="line" smooth="yes"/>
      <point x="173" y="-51"/>
      <point x="197" y="-65"/>
    </contour>
  </outline>
</glyph>
<glyph name="grave" format="1">
  <advance width="1745"/>
  <unicode hex="0060"/>
  <outline>
    <contour>
      <point x="1328" y="1166" type="curve" smooth="yes"/>
      <point x="1368" y="1166" type="line" smooth="yes"/>
      <point x="1397" y="1166"/>
      <point x="1410" y="1171"/>
      <point x="1410" y="1198" type="curve" smooth="yes"/>
      <point x="1410" y="1207"/>
      <point x="1409" y="1219"/>
      <point x="1406" y="1233" type="curve" smooth="yes"/>
      <point x="1343" y="1543" type="line" smooth="yes"/>
      <point x="1335" y="1586"/>
      <point x="1316" y="1598"/>
      <point x="1272" y="1598" type="curve" smooth="yes"/>
      <point x="1106" y="1598" type="line" smooth="yes"/>
      <point x="1086" y="1598"/>
      <point x="1078" y="1586"/>
      <point x="1078" y="1570" type="curve" smooth="yes"/>
      <point x="1078" y="1559"/>
      <point x="1083" y="1545"/>
      <point x="1090" y="1533" type="curve" smooth="yes"/>
      <point x="1272" y="1205" type="line" smooth="yes"/>
      <point x="1282" y="1188"/>
      <point x="1290" y="1166"/>
    </contour>
  </outline>
</glyph>
<glyph name="a" format="1">
  <advance width="1834"/>
  <unicode hex="0061"/>
  <outline>
    <contour>
      <point x="750" y="-41" type="curve" smooth="yes"/>
      <point x="1148" y="-41"/>
      <point x="1307" y="62"/>
      <point x="1445" y="238" type="curve"/>
      <point x="1451" y="245"/>
      <point x="1454" y="252"/>
      <point x="1459" y="252" type="curve" smooth="yes"/>
      <point x="1465" y="252"/>
      <point x="1471" y="245"/>
      <point x="1475" y="224" type="curve"/>
      <point x="1480" y="206"/>
      <point x="1500" y="144"/>
      <point x="1512" y="100" type="curve" smooth="yes"/>
      <point x="1523" y="60"/>
      <point x="1539" y="0"/>
      <point x="1579" y="0" type="curve" smooth="yes"/>
      <point x="1597" y="0" type="line" smooth="yes"/>
      <point x="1632" y="0"/>
      <point x="1648" y="28"/>
      <point x="1648" y="63" type="curve" smooth="yes"/>
      <point x="1648" y="631" type="line" smooth="yes"/>
      <point x="1648" y="929"/>
      <point x="1501" y="1052"/>
      <point x="914" y="1052" type="curve" smooth="yes"/>
      <point x="507" y="1052"/>
      <point x="261" y="992"/>
      <point x="208" y="846" type="curve" smooth="yes"/>
      <point x="204" y="835"/>
      <point x="197" y="820"/>
      <point x="197" y="802" type="curve" smooth="yes"/>
      <point x="197" y="785"/>
      <point x="212" y="767"/>
      <point x="229" y="765" type="curve" smooth="yes"/>
      <point x="353" y="748" type="line" smooth="yes"/>
      <point x="362" y="747"/>
      <point x="365" y="746"/>
      <point x="371" y="746" type="curve" smooth="yes"/>
      <point x="392" y="746"/>
      <point x="426" y="778"/>
      <point x="447" y="800" type="curve" smooth="yes"/>
      <point x="538" y="893"/>
      <point x="832" y="900"/>
      <point x="916" y="900" type="curve" smooth="yes"/>
      <point x="1409" y="900"/>
      <point x="1419" y="823"/>
      <point x="1419" y="668" type="curve" smooth="yes"/>
      <point x="1419" y="641" type="line" smooth="yes"/>
      <point x="1419" y="606"/>
      <point x="163" y="672"/>
      <point x="170" y="238" type="curve" smooth="yes"/>
      <point x="173" y="62"/>
      <point x="358" y="-41"/>
    </contour>
    <contour>
      <point x="763" y="103" type="curve" smooth="yes"/>
      <point x="493" y="103"/>
      <point x="409" y="156"/>
      <point x="407" y="251" type="curve" smooth="yes"/>
      <point x="404" y="383"/>
      <point x="632" y="450"/>
      <point x="1224" y="490" type="curve"/>
      <point x="1229" y="491"/>
      <point x="1408" y="501"/>
      <point x="1411" y="501" type="curve" smooth="yes"/>
      <point x="1422" y="501"/>
      <point x="1422" y="497"/>
      <point x="1422" y="483" type="curve" smooth="yes"/>
      <point x="1422" y="235"/>
      <point x="1071" y="103"/>
    </contour>
  </outline>
</glyph>
<glyph name="b" format="1">
  <advance width="1757"/>
  <unicode hex="0062"/>
  <outline>
    <contour>
      <point x="930" y="-41" type="curve" smooth="yes"/>
      <point x="1224" y="-41"/>
      <point x="1590" y="107"/>
      <point x="1590" y="504" type="curve" smooth="yes"/>
      <point x="1590" y="912"/>
      <point x="1236" y="1053"/>
      <point x="912" y="1053" type="curve" smooth="yes"/>
      <point x="713" y="1053"/>
      <point x="542" y="989"/>
      <point x="434" y="857" type="curve"/>
      <point x="432" y="857"/>
      <point x="430" y="853"/>
      <point x="428" y="853" type="curve" smooth="yes"/>
      <point x="427" y="853"/>
      <point x="426" y="854"/>
      <point x="426" y="861" type="curve" smooth="yes"/>
      <point x="426" y="1371" type="line" smooth="yes"/>
      <point x="426" y="1414"/>
      <point x="402" y="1438"/>
      <point x="359" y="1438" type="curve" smooth="yes"/>
      <point x="265" y="1438" type="line" smooth="yes"/>
      <point x="222" y="1438"/>
      <point x="198" y="1414"/>
      <point x="198" y="1371" type="curve" smooth="yes"/>
      <point x="198" y="67" type="line" smooth="yes"/>
      <point x="198" y="24"/>
      <point x="208" y="0"/>
      <point x="251" y="0" type="curve" smooth="yes"/>
      <point x="265" y="0" type="line" smooth="yes"/>
      <point x="306" y="0"/>
      <point x="334" y="53"/>
      <point x="362" y="144" type="curve" smooth="yes"/>
      <point x="368" y="164"/>
      <point x="375" y="184"/>
      <point x="380" y="201" type="curve"/>
      <point x="382" y="210"/>
      <point x="385" y="212"/>
      <point x="388" y="212" type="curve" smooth="yes"/>
      <point x="391" y="212"/>
      <point x="393" y="209"/>
      <point x="395" y="207" type="curve"/>
      <point x="512" y="43"/>
      <point x="730" y="-41"/>
    </contour>
    <contour>
      <point x="895" y="119" type="curve" smooth="yes"/>
      <point x="638" y="119"/>
      <point x="426" y="247"/>
      <point x="426" y="504" type="curve" smooth="yes"/>
      <point x="426" y="784"/>
      <point x="654" y="893"/>
      <point x="895" y="893" type="curve" smooth="yes"/>
      <point x="1133" y="893"/>
      <point x="1361" y="788"/>
      <point x="1361" y="504" type="curve" smooth="yes"/>
      <point x="1361" y="243"/>
      <point x="1149" y="119"/>
    </contour>
  </outline>
</glyph>
<glyph name="c" format="1">
  <advance width="1615"/>
  <unicode hex="0063"/>
  <outline>
    <contour>
      <point x="905" y="-41" type="curve" smooth="yes"/>
      <point x="1046" y="-41"/>
      <point x="1232" y="1"/>
      <point x="1358" y="62" type="curve" smooth="yes"/>
      <point x="1402" y="83"/>
      <point x="1407" y="108"/>
      <point x="1399" y="135" type="curve" smooth="yes"/>
      <point x="1391" y="163"/>
      <point x="1381" y="194"/>
      <point x="1378" y="201" type="curve"/>
      <point x="1371" y="221"/>
      <point x="1343" y="230"/>
      <point x="1302" y="211" type="curve" smooth="yes"/>
      <point x="1235" y="180"/>
      <point x="1087" y="110"/>
      <point x="917" y="110" type="curve" smooth="yes"/>
      <point x="638" y="110"/>
      <point x="384" y="246"/>
      <point x="385" y="504" type="curve" smooth="yes"/>
      <point x="384" y="786"/>
      <point x="662" y="900"/>
      <point x="904" y="900" type="curve" smooth="yes"/>
      <point x="1105" y="900"/>
      <point x="1242" y="841"/>
      <point x="1324" y="797" type="curve" smooth="yes"/>
      <point x="1349" y="784"/>
      <point x="1381" y="762"/>
      <point x="1399" y="805" type="curve" smooth="yes"/>
      <point x="1428" y="871" type="line" smooth="yes"/>
      <point x="1437" y="893"/>
      <point x="1433" y="913"/>
      <point x="1402" y="932" type="curve" smooth="yes"/>
      <point x="1265" y="1015"/>
      <point x="1066" y="1053"/>
      <point x="905" y="1053" type="curve" smooth="yes"/>
      <point x="576" y="1053"/>
      <point x="156" y="912"/>
      <point x="156" y="504" type="curve" smooth="yes"/>
      <point x="156" y="106"/>
      <point x="578" y="-41"/>
    </contour>
  </outline>
</glyph>
<glyph name="d" format="1">
  <advance width="1751"/>
  <unicode hex="0064"/>
  <outline>
    <contour>
      <point x="818" y="-41" type="curve" smooth="yes"/>
      <point x="1016" y="-41"/>
      <point x="1233" y="42"/>
      <point x="1350" y="203" type="curve" smooth="yes"/>
      <point x="1354" y="209"/>
      <point x="1358" y="214"/>
      <point x="1362" y="220" type="curve"/>
      <point x="1364" y="214"/>
      <point x="1366" y="208"/>
      <point x="1368" y="202" type="curve" smooth="yes"/>
      <point x="1381" y="162"/>
      <point x="1396" y="112"/>
      <point x="1415" y="71" type="curve" smooth="yes"/>
      <point x="1435" y="31"/>
      <point x="1457" y="0"/>
      <point x="1483" y="0" type="curve" smooth="yes"/>
      <point x="1497" y="0" type="line" smooth="yes"/>
      <point x="1540" y="0"/>
      <point x="1550" y="24"/>
      <point x="1550" y="67" type="curve" smooth="yes"/>
      <point x="1550" y="1371" type="line" smooth="yes"/>
      <point x="1550" y="1414"/>
      <point x="1526" y="1438"/>
      <point x="1483" y="1438" type="curve" smooth="yes"/>
      <point x="1389" y="1438" type="line" smooth="yes"/>
      <point x="1346" y="1438"/>
      <point x="1322" y="1414"/>
      <point x="1322" y="1371" type="curve" smooth="yes"/>
      <point x="1322" y="866" type="line"/>
      <point x="1322" y="847" type="line"/>
      <point x="1319" y="852"/>
      <point x="1315" y="856"/>
      <point x="1311" y="860" type="curve"/>
      <point x="1204" y="990"/>
      <point x="1033" y="1053"/>
      <point x="836" y="1053" type="curve" smooth="yes"/>
      <point x="512" y="1053"/>
      <point x="158" y="912"/>
      <point x="158" y="504" type="curve" smooth="yes"/>
      <point x="158" y="107"/>
      <point x="524" y="-41"/>
    </contour>
    <contour>
      <point x="853" y="119" type="curve" smooth="yes"/>
      <point x="599" y="119"/>
      <point x="387" y="243"/>
      <point x="387" y="504" type="curve" smooth="yes"/>
      <point x="387" y="788"/>
      <point x="615" y="893"/>
      <point x="853" y="893" type="curve" smooth="yes"/>
      <point x="1095" y="893"/>
      <point x="1323" y="786"/>
      <point x="1322" y="504" type="curve"/>
      <point x="1323" y="246"/>
      <point x="1111" y="119"/>
    </contour>
  </outline>
</glyph>
<glyph name="e" format="1">
  <advance width="1663"/>
  <unicode hex="0065"/>
  <outline>
    <contour>
      <point x="888" y="-42" type="curve" smooth="yes"/>
      <point x="1280" y="-42"/>
      <point x="1479" y="95"/>
      <point x="1479" y="214" type="curve" smooth="yes"/>
      <point x="1479" y="262"/>
      <point x="1473" y="273"/>
      <point x="1444" y="273" type="curve" smooth="yes"/>
      <point x="1342" y="273" type="line" smooth="yes"/>
      <point x="1303" y="273"/>
      <point x="1306" y="110"/>
      <point x="901" y="110" type="curve" smooth="yes"/>
      <point x="484" y="110"/>
      <point x="393" y="314"/>
      <point x="392" y="440" type="curve" smooth="yes"/>
      <point x="392" y="448"/>
      <point x="398" y="450"/>
      <point x="409" y="450" type="curve" smooth="yes"/>
      <point x="1381" y="450" type="line" smooth="yes"/>
      <point x="1490" y="450"/>
      <point x="1512" y="521"/>
      <point x="1513" y="556" type="curve" smooth="yes"/>
      <point x="1513" y="607" type="line"/>
      <point x="1465" y="817"/>
      <point x="1295" y="1052"/>
      <point x="866" y="1052" type="curve" smooth="yes"/>
      <point x="538" y="1052"/>
      <point x="157" y="912"/>
      <point x="157" y="504" type="curve" smooth="yes"/>
      <point x="157" y="106"/>
      <point x="502" y="-42"/>
    </contour>
    <contour>
      <point x="404" y="595" type="line" smooth="yes"/>
      <point x="397" y="595"/>
      <point x="396" y="598"/>
      <point x="396" y="602" type="curve"/>
      <point x="431" y="816"/>
      <point x="653" y="900"/>
      <point x="865" y="900" type="curve" smooth="yes"/>
      <point x="1187" y="900"/>
      <point x="1271" y="738"/>
      <point x="1320" y="597" type="curve"/>
      <point x="1321" y="595" type="line"/>
    </contour>
  </outline>
</glyph>
<glyph name="f" format="1">
  <advance width="1293"/>
  <unicode hex="0066"/>
  <outline>
    <contour>
      <point x="467" y="0" type="curve" smooth="yes"/>
      <point x="541" y="0" type="line" smooth="yes"/>
      <point x="584" y="0"/>
      <point x="618" y="34"/>
      <point x="618" y="77" type="curve" smooth="yes"/>
      <point x="618" y="821" type="line" smooth="yes"/>
      <point x="618" y="841"/>
      <point x="621" y="858"/>
      <point x="641" y="858" type="curve" smooth="yes"/>
      <point x="1035" y="858" type="line" smooth="yes"/>
      <point x="1078" y="858"/>
      <point x="1102" y="867"/>
      <point x="1102" y="910" type="curve" smooth="yes"/>
      <point x="1102" y="951" type="line" smooth="yes"/>
      <point x="1102" y="994"/>
      <point x="1078" y="1006"/>
      <point x="1035" y="1006" type="curve" smooth="yes"/>
      <point x="624" y="1006" type="line" smooth="yes"/>
      <point x="621" y="1006"/>
      <point x="618" y="1009"/>
      <point x="618" y="1012" type="curve" smooth="yes"/>
      <point x="618" y="1090" type="line" smooth="yes"/>
      <point x="618" y="1229"/>
      <point x="670" y="1310"/>
      <point x="891" y="1310" type="curve" smooth="yes"/>
      <point x="957" y="1310"/>
      <point x="1080" y="1280"/>
      <point x="1085" y="1280" type="curve" smooth="yes"/>
      <point x="1119" y="1280"/>
      <point x="1126" y="1294"/>
      <point x="1126" y="1331" type="curve" smooth="yes"/>
      <point x="1126" y="1375" type="line" smooth="yes"/>
      <point x="1126" y="1403"/>
      <point x="1104" y="1431"/>
      <point x="1076" y="1438" type="curve"/>
      <point x="1058" y="1441"/>
      <point x="936" y="1475"/>
      <point x="822" y="1475" type="curve" smooth="yes"/>
      <point x="607" y="1475"/>
      <point x="391" y="1381"/>
      <point x="391" y="1041" type="curve" smooth="yes"/>
      <point x="391" y="1019"/>
      <point x="390" y="1006"/>
      <point x="368" y="1006" type="curve" smooth="yes"/>
      <point x="218" y="1006" type="line" smooth="yes"/>
      <point x="175" y="1006"/>
      <point x="151" y="988"/>
      <point x="151" y="945" type="curve" smooth="yes"/>
      <point x="151" y="910" type="line" smooth="yes"/>
      <point x="151" y="867"/>
      <point x="175" y="858"/>
      <point x="218" y="858" type="curve" smooth="yes"/>
      <point x="370" y="858" type="line" smooth="yes"/>
      <point x="390" y="858"/>
      <point x="390" y="841"/>
      <point x="390" y="821" type="curve" smooth="yes"/>
      <point x="390" y="77" type="line" smooth="yes"/>
      <point x="390" y="34"/>
      <point x="424" y="0"/>
    </contour>
  </outline>
</glyph>
<glyph name="g" format="1">
  <advance width="1666"/>
  <unicode hex="0067"/>
  <outline>
    <contour>
      <point x="810" y="-492" type="curve" smooth="yes"/>
      <point x="1288" y="-492"/>
      <point x="1503" y="-405"/>
      <point x="1503" y="-173" type="curve" smooth="yes"/>
      <point x="1503" y="22"/>
      <point x="1371" y="170"/>
      <point x="956" y="170" type="curve" smooth="yes"/>
      <point x="550" y="170" type="line" smooth="yes"/>
      <point x="392" y="170"/>
      <point x="389" y="206"/>
      <point x="389" y="245" type="curve" smooth="yes"/>
      <point x="389" y="275"/>
      <point x="421" y="315"/>
      <point x="457" y="343" type="curve" smooth="yes"/>
      <point x="482" y="362"/>
      <point x="520" y="384"/>
      <point x="536" y="381" type="curve" smooth="yes"/>
      <point x="612" y="364"/>
      <point x="714" y="354"/>
      <point x="829" y="354" type="curve" smooth="yes"/>
      <point x="1291" y="354"/>
      <point x="1394" y="512"/>
      <point x="1394" y="705" type="curve" smooth="yes"/>
      <point x="1394" y="823"/>
      <point x="1289" y="947"/>
      <point x="1104" y="999" type="curve" smooth="yes"/>
      <point x="1088" y="1004"/>
      <point x="1081" y="1025"/>
      <point x="1091" y="1040" type="curve" smooth="yes"/>
      <point x="1265" y="1283" type="line"/>
      <point x="1281" y="1308"/>
      <point x="1263" y="1342"/>
      <point x="1232" y="1342" type="curve" smooth="yes"/>
      <point x="1137" y="1342" type="line" smooth="yes"/>
      <point x="1097" y="1342"/>
      <point x="1062" y="1313"/>
      <point x="1055" y="1274" type="curve"/>
      <point x="985" y="1067" type="line"/>
      <point x="981" y="1050"/>
      <point x="963" y="1037"/>
      <point x="945" y="1039" type="curve" smooth="yes"/>
      <point x="902" y="1044"/>
      <point x="846" y="1052"/>
      <point x="792" y="1052" type="curve" smooth="yes"/>
      <point x="317" y="1052"/>
      <point x="174" y="889"/>
      <point x="174" y="705" type="curve" smooth="yes"/>
      <point x="174" y="614"/>
      <point x="220" y="525"/>
      <point x="363" y="449" type="curve" smooth="yes"/>
      <point x="369" y="446"/>
      <point x="379" y="446"/>
      <point x="379" y="439" type="curve" smooth="yes"/>
      <point x="379" y="431"/>
      <point x="368" y="426"/>
      <point x="360" y="421" type="curve" smooth="yes"/>
      <point x="282" y="372"/>
      <point x="199" y="277"/>
      <point x="199" y="182" type="curve" smooth="yes"/>
      <point x="199" y="94"/>
      <point x="269" y="64"/>
      <point x="402" y="34" type="curve"/>
      <point x="409" y="32"/>
      <point x="421" y="28"/>
      <point x="421" y="22" type="curve" smooth="yes"/>
      <point x="421" y="17"/>
      <point x="410" y="8"/>
      <point x="404" y="5" type="curve"/>
      <point x="286" y="-68"/>
      <point x="193" y="-135"/>
      <point x="193" y="-279" type="curve" smooth="yes"/>
      <point x="193" y="-416"/>
      <point x="369" y="-492"/>
    </contour>
    <contour>
      <point x="822" y="-332" type="curve" smooth="yes"/>
      <point x="453" y="-332"/>
      <point x="400" y="-278"/>
      <point x="400" y="-207" type="curve" smooth="yes"/>
      <point x="400" y="-101"/>
      <point x="544" y="0"/>
      <point x="636" y="0" type="curve" smooth="yes"/>
      <point x="940" y="0" type="line" smooth="yes"/>
      <point x="1162" y="0"/>
      <point x="1316" y="-32"/>
      <point x="1316" y="-135" type="curve" smooth="yes"/>
      <point x="1316" y="-268"/>
      <point x="1238" y="-332"/>
    </contour>
    <contour>
      <point x="792" y="511" type="curve" smooth="yes"/>
      <point x="444" y="511"/>
      <point x="391" y="613"/>
      <point x="391" y="709" type="curve" smooth="yes"/>
      <point x="391" y="792"/>
      <point x="439" y="900"/>
      <point x="786" y="900" type="curve" smooth="yes"/>
      <point x="1147" y="900"/>
      <point x="1185" y="797"/>
      <point x="1185" y="698" type="curve" smooth="yes"/>
      <point x="1185" y="608"/>
      <point x="1162" y="511"/>
    </contour>
  </outline>
</glyph>
<glyph name="h" format="1">
  <advance width="1627"/>
  <unicode hex="0068"/>
  <outline>
    <contour>
      <point x="265" y="0" type="curve" smooth="yes"/>
      <point x="360" y="0" type="line" smooth="yes"/>
      <point x="403" y="0"/>
      <point x="426" y="24"/>
      <point x="426" y="67" type="curve" smooth="yes"/>
      <point x="426" y="606" type="line" smooth="yes"/>
      <point x="426" y="739"/>
      <point x="683" y="900"/>
      <point x="880" y="900" type="curve" smooth="yes"/>
      <point x="1066" y="900"/>
      <point x="1215" y="831"/>
      <point x="1215" y="606" type="curve" smooth="yes"/>
      <point x="1215" y="67" type="line" smooth="yes"/>
      <point x="1215" y="24"/>
      <point x="1239" y="0"/>
      <point x="1282" y="0" type="curve" smooth="yes"/>
      <point x="1376" y="0" type="line" smooth="yes"/>
      <point x="1419" y="0"/>
      <point x="1443" y="24"/>
      <point x="1443" y="67" type="curve" smooth="yes"/>
      <point x="1443" y="552" type="line" smooth="yes"/>
      <point x="1443" y="888"/>
      <point x="1235" y="1052"/>
      <point x="923" y="1052" type="curve" smooth="yes"/>
      <point x="742" y="1052"/>
      <point x="565" y="993"/>
      <point x="436" y="848" type="curve"/>
      <point x="426" y="854" type="line"/>
      <point x="426" y="1371" type="line" smooth="yes"/>
      <point x="426" y="1414"/>
      <point x="402" y="1438"/>
      <point x="359" y="1438" type="curve" smooth="yes"/>
      <point x="265" y="1438" type="line" smooth="yes"/>
      <point x="222" y="1438"/>
      <point x="198" y="1414"/>
      <point x="198" y="1371" type="curve" smooth="yes"/>
      <point x="198" y="67" type="line" smooth="yes"/>
      <point x="198" y="24"/>
      <point x="222" y="0"/>
    </contour>
  </outline>
</glyph>
<glyph name="i" format="1">
  <advance width="652"/>
  <unicode hex="0069"/>
  <outline>
    <contour>
      <point x="279" y="0" type="curve" smooth="yes"/>
      <point x="373" y="0" type="line" smooth="yes"/>
      <point x="416" y="0"/>
      <point x="440" y="24"/>
      <point x="440" y="67" type="curve" smooth="yes"/>
      <point x="440" y="939" type="line" smooth="yes"/>
      <point x="440" y="982"/>
      <point x="416" y="1006"/>
      <point x="373" y="1006" type="curve" smooth="yes"/>
      <point x="279" y="1006" type="line" smooth="yes"/>
      <point x="236" y="1006"/>
      <point x="212" y="982"/>
      <point x="212" y="939" type="curve" smooth="yes"/>
      <point x="212" y="67" type="line" smooth="yes"/>
      <point x="212" y="24"/>
      <point x="236" y="0"/>
    </contour>
    <contour>
      <point x="279" y="1179" type="curve" smooth="yes"/>
      <point x="373" y="1179" type="line" smooth="yes"/>
      <point x="416" y="1179"/>
      <point x="440" y="1203"/>
      <point x="440" y="1246" type="curve" smooth="yes"/>
      <point x="440" y="1344" type="line" smooth="yes"/>
      <point x="440" y="1387"/>
      <point x="416" y="1411"/>
      <point x="373" y="1411" type="curve" smooth="yes"/>
      <point x="279" y="1411" type="line" smooth="yes"/>
      <point x="236" y="1411"/>
      <point x="212" y="1387"/>
      <point x="212" y="1344" type="curve" smooth="yes"/>
      <point x="212" y="1246" type="line" smooth="yes"/>
      <point x="212" y="1203"/>
      <point x="236" y="1179"/>
    </contour>
  </outline>
</glyph>
<glyph name="j" format="1">
  <advance width="909"/>
  <unicode hex="006A"/>
  <outline>
    <contour>
      <point x="270" y="-378" type="line" smooth="yes"/>
      <point x="575" y="-395"/>
      <point x="694" y="-259"/>
      <point x="696" y="6" type="curve" smooth="yes"/>
      <point x="696" y="939" type="line" smooth="yes"/>
      <point x="696" y="982"/>
      <point x="672" y="1006"/>
      <point x="629" y="1006" type="curve" smooth="yes"/>
      <point x="535" y="1006" type="line" smooth="yes"/>
      <point x="492" y="1006"/>
      <point x="468" y="982"/>
      <point x="468" y="939" type="curve" smooth="yes"/>
      <point x="468" y="140" type="line" smooth="yes"/>
      <point x="468" y="-46"/>
      <point x="451" y="-191"/>
      <point x="283" y="-178" type="curve" smooth="yes"/>
      <point x="164" y="-169" type="line" smooth="yes"/>
      <point x="121" y="-166"/>
      <point x="97" y="-193"/>
      <point x="97" y="-236" type="curve" smooth="yes"/>
      <point x="97" y="-305" type="line" smooth="yes"/>
      <point x="97" y="-348"/>
      <point x="121" y="-370"/>
      <point x="164" y="-372" type="curve" smooth="yes"/>
    </contour>
    <contour>
      <point x="528" y="1179" type="curve" smooth="yes"/>
      <point x="622" y="1179" type="line" smooth="yes"/>
      <point x="665" y="1179"/>
      <point x="689" y="1203"/>
      <point x="689" y="1246" type="curve" smooth="yes"/>
      <point x="689" y="1344" type="line" smooth="yes"/>
      <point x="689" y="1387"/>
      <point x="665" y="1411"/>
      <point x="622" y="1411" type="curve" smooth="yes"/>
      <point x="528" y="1411" type="line" smooth="yes"/>
      <point x="485" y="1411"/>
      <point x="461" y="1387"/>
      <point x="461" y="1344" type="curve" smooth="yes"/>
      <point x="461" y="1246" type="line" smooth="yes"/>
      <point x="461" y="1203"/>
      <point x="485" y="1179"/>
    </contour>
  </outline>
</glyph>
<glyph name="k" format="1">
  <advance width="1792"/>
  <unicode hex="006B"/>
  <outline>
    <contour>
      <point x="265" y="0" type="curve" smooth="yes"/>
      <point x="359" y="0" type="line" smooth="yes"/>
      <point x="402" y="0"/>
      <point x="426" y="24"/>
      <point x="426" y="67" type="curve" smooth="yes"/>
      <point x="426" y="122"/>
      <point x="426" y="280"/>
      <point x="426" y="288" type="curve" smooth="yes"/>
      <point x="426" y="299"/>
      <point x="431" y="305"/>
      <point x="439" y="310" type="curve" smooth="yes"/>
      <point x="442" y="312"/>
      <point x="646" y="429"/>
      <point x="715" y="468" type="curve"/>
      <point x="721" y="472"/>
      <point x="726" y="473"/>
      <point x="729" y="473" type="curve" smooth="yes"/>
      <point x="737" y="473"/>
      <point x="741" y="468"/>
      <point x="745" y="465" type="curve" smooth="yes"/>
      <point x="1287" y="67" type="line" smooth="yes"/>
      <point x="1335" y="31"/>
      <point x="1376" y="0"/>
      <point x="1419" y="0" type="curve" smooth="yes"/>
      <point x="1583" y="0" type="line" smooth="yes"/>
      <point x="1606" y="0"/>
      <point x="1619" y="9"/>
      <point x="1619" y="22" type="curve" smooth="yes"/>
      <point x="1619" y="34"/>
      <point x="1608" y="50"/>
      <point x="1585" y="67" type="curve" smooth="yes"/>
      <point x="917" y="548" type="line"/>
      <point x="915" y="549"/>
      <point x="910" y="552"/>
      <point x="910" y="556" type="curve" smooth="yes"/>
      <point x="910" y="559"/>
      <point x="911" y="561"/>
      <point x="916" y="564" type="curve" smooth="yes"/>
      <point x="1521" y="939" type="line" smooth="yes"/>
      <point x="1553" y="958"/>
      <point x="1567" y="976"/>
      <point x="1567" y="989" type="curve" smooth="yes"/>
      <point x="1567" y="999"/>
      <point x="1557" y="1006"/>
      <point x="1537" y="1006" type="curve" smooth="yes"/>
      <point x="1343" y="1006" type="line" smooth="yes"/>
      <point x="1300" y="1006"/>
      <point x="1251" y="975"/>
      <point x="1193" y="939" type="curve" smooth="yes"/>
      <point x="439" y="474" type="line"/>
      <point x="437" y="472"/>
      <point x="434" y="472"/>
      <point x="433" y="472" type="curve" smooth="yes"/>
      <point x="428" y="472"/>
      <point x="426" y="475"/>
      <point x="426" y="481" type="curve" smooth="yes"/>
      <point x="426" y="1371" type="line" smooth="yes"/>
      <point x="426" y="1414"/>
      <point x="402" y="1438"/>
      <point x="359" y="1438" type="curve" smooth="yes"/>
      <point x="265" y="1438" type="line" smooth="yes"/>
      <point x="222" y="1438"/>
      <point x="198" y="1414"/>
      <point x="198" y="1371" type="curve" smooth="yes"/>
      <point x="198" y="67" type="line" smooth="yes"/>
      <point x="198" y="24"/>
      <point x="222" y="0"/>
    </contour>
  </outline>
</glyph>
<glyph name="m" format="1">
  <advance width="2633"/>
  <unicode hex="006D"/>
  <outline>
    <contour>
      <point x="253" y="0" type="curve" smooth="yes"/>
      <point x="348" y="0" type="line" smooth="yes"/>
      <point x="391" y="0"/>
      <point x="414" y="24"/>
      <point x="414" y="67" type="curve" smooth="yes"/>
      <point x="414" y="606" type="line" smooth="yes"/>
      <point x="414" y="739"/>
      <point x="671" y="900"/>
      <point x="868" y="900" type="curve" smooth="yes"/>
      <point x="1054" y="900"/>
      <point x="1203" y="831"/>
      <point x="1203" y="606" type="curve" smooth="yes"/>
      <point x="1203" y="67" type="line" smooth="yes"/>
      <point x="1203" y="24"/>
      <point x="1227" y="0"/>
      <point x="1270" y="0" type="curve" smooth="yes"/>
      <point x="1364" y="0" type="line" smooth="yes"/>
      <point x="1407" y="0"/>
      <point x="1431" y="24"/>
      <point x="1431" y="67" type="curve" smooth="yes"/>
      <point x="1431" y="598" type="line"/>
      <point x="1432" y="599"/>
      <point x="1433" y="602"/>
      <point x="1433" y="606" type="curve" smooth="yes"/>
      <point x="1433" y="739"/>
      <point x="1689" y="901"/>
      <point x="1886" y="901" type="curve" smooth="yes"/>
      <point x="2072" y="901"/>
      <point x="2221" y="831"/>
      <point x="2221" y="606" type="curve" smooth="yes"/>
      <point x="2221" y="67" type="line" smooth="yes"/>
      <point x="2221" y="24"/>
      <point x="2245" y="0"/>
      <point x="2288" y="0" type="curve" smooth="yes"/>
      <point x="2382" y="0" type="line" smooth="yes"/>
      <point x="2425" y="0"/>
      <point x="2449" y="24"/>
      <point x="2449" y="67" type="curve" smooth="yes"/>
      <point x="2449" y="552" type="line" smooth="yes"/>
      <point x="2449" y="888"/>
      <point x="2241" y="1052"/>
      <point x="1929" y="1052" type="curve" smooth="yes"/>
      <point x="1739" y="1052"/>
      <point x="1548" y="990"/>
      <point x="1423" y="826" type="curve" smooth="yes"/>
      <point x="1409" y="808"/>
      <point x="1398" y="801"/>
      <point x="1390" y="801" type="curve" smooth="yes"/>
      <point x="1378" y="801"/>
      <point x="1371" y="812"/>
      <point x="1364" y="822" type="curve" smooth="yes"/>
      <point x="1264" y="972"/>
      <point x="1125" y="1052"/>
      <point x="911" y="1052" type="curve" smooth="yes"/>
      <point x="721" y="1052"/>
      <point x="535" y="987"/>
      <point x="405" y="826" type="curve" smooth="yes"/>
      <point x="399" y="819"/>
      <point x="393" y="811"/>
      <point x="385" y="811" type="curve" smooth="yes"/>
      <point x="377" y="811"/>
      <point x="375" y="816"/>
      <point x="370" y="824" type="curve"/>
      <point x="343" y="942" type="line" smooth="yes"/>
      <point x="332" y="992"/>
      <point x="310" y="1006"/>
      <point x="263" y="1006" type="curve" smooth="yes"/>
      <point x="243" y="1006" type="line" smooth="yes"/>
      <point x="200" y="1006"/>
      <point x="186" y="972"/>
      <point x="186" y="929" type="curve" smooth="yes"/>
      <point x="186" y="67" type="line" smooth="yes"/>
      <point x="186" y="24"/>
      <point x="210" y="0"/>
    </contour>
  </outline>
</glyph>
<glyph name="n" format="1">
  <advance width="1615"/>
  <unicode hex="006E"/>
  <outline>
    <contour>
      <point x="253" y="0" type="curve" smooth="yes"/>
      <point x="348" y="0" type="line" smooth="yes"/>
      <point x="391" y="0"/>
      <point x="414" y="24"/>
      <point x="414" y="67" type="curve" smooth="yes"/>
      <point x="414" y="606" type="line" smooth="yes"/>
      <point x="414" y="739"/>
      <point x="671" y="901"/>
      <point x="868" y="901" type="curve" smooth="yes"/>
      <point x="1054" y="901"/>
      <point x="1203" y="831"/>
      <point x="1203" y="606" type="curve" smooth="yes"/>
      <point x="1203" y="67" type="line" smooth="yes"/>
      <point x="1203" y="24"/>
      <point x="1227" y="0"/>
      <point x="1270" y="0" type="curve" smooth="yes"/>
      <point x="1364" y="0" type="line" smooth="yes"/>
      <point x="1407" y="0"/>
      <point x="1431" y="24"/>
      <point x="1431" y="67" type="curve" smooth="yes"/>
      <point x="1431" y="552" type="line" smooth="yes"/>
      <point x="1431" y="888"/>
      <point x="1223" y="1052"/>
      <point x="911" y="1052" type="curve" smooth="yes"/>
      <point x="721" y="1052"/>
      <point x="535" y="987"/>
      <point x="405" y="826" type="curve" smooth="yes"/>
      <point x="399" y="819"/>
      <point x="393" y="811"/>
      <point x="385" y="811" type="curve" smooth="yes"/>
      <point x="377" y="811"/>
      <point x="375" y="816"/>
      <point x="370" y="824" type="curve"/>
      <point x="343" y="942" type="line" smooth="yes"/>
      <point x="332" y="992"/>
      <point x="310" y="1006"/>
      <point x="263" y="1006" type="curve" smooth="yes"/>
      <point x="243" y="1006" type="line" smooth="yes"/>
      <point x="200" y="1006"/>
      <point x="186" y="972"/>
      <point x="186" y="929" type="curve" smooth="yes"/>
      <point x="186" y="67" type="line" smooth="yes"/>
      <point x="186" y="24"/>
      <point x="210" y="0"/>
    </contour>
  </outline>
</glyph>
<glyph name="o" format="1">
  <advance width="1717"/>
  <unicode hex="006F"/>
  <outline>
    <contour>
      <point x="860" y="111" type="curve" smooth="yes"/>
      <point x="602" y="111"/>
      <point x="390" y="246"/>
      <point x="391" y="504" type="curve" smooth="yes"/>
      <point x="390" y="786"/>
      <point x="618" y="900"/>
      <point x="860" y="900" type="curve" smooth="yes"/>
      <point x="1098" y="900"/>
      <point x="1326" y="788"/>
      <point x="1326" y="504" type="curve" smooth="yes"/>
      <point x="1326" y="243"/>
      <point x="1114" y="111"/>
    </contour>
    <contour>
      <point x="861" y="-41" type="curve" smooth="yes"/>
      <point x="1155" y="-41"/>
      <point x="1555" y="107"/>
      <point x="1555" y="504" type="curve" smooth="yes"/>
      <point x="1555" y="912"/>
      <point x="1185" y="1052"/>
      <point x="861" y="1052" type="curve" smooth="yes"/>
      <point x="532" y="1052"/>
      <point x="162" y="912"/>
      <point x="162" y="504" type="curve" smooth="yes"/>
      <point x="162" y="106"/>
      <point x="562" y="-41"/>
    </contour>
  </outline>
</glyph>
<glyph name="p" format="1">
  <advance width="1748"/>
  <unicode hex="0070"/>
  <outline>
    <contour>
      <point x="256" y="-427" type="curve" smooth="yes"/>
      <point x="350" y="-427" type="line" smooth="yes"/>
      <point x="393" y="-427"/>
      <point x="417" y="-403"/>
      <point x="417" y="-360" type="curve" smooth="yes"/>
      <point x="417" y="147" type="line" smooth="yes"/>
      <point x="417" y="153"/>
      <point x="419" y="155"/>
      <point x="421" y="155" type="curve" smooth="yes"/>
      <point x="423" y="155"/>
      <point x="426" y="153"/>
      <point x="428" y="150" type="curve"/>
      <point x="536" y="21"/>
      <point x="706" y="-42"/>
      <point x="903" y="-42" type="curve" smooth="yes"/>
      <point x="1227" y="-42"/>
      <point x="1581" y="99"/>
      <point x="1581" y="507" type="curve" smooth="yes"/>
      <point x="1581" y="904"/>
      <point x="1215" y="1052"/>
      <point x="921" y="1052" type="curve" smooth="yes"/>
      <point x="722" y="1052"/>
      <point x="504" y="968"/>
      <point x="387" y="806" type="curve"/>
      <point x="383" y="802"/>
      <point x="379" y="800"/>
      <point x="377" y="800" type="curve" smooth="yes"/>
      <point x="372" y="800"/>
      <point x="369" y="805"/>
      <point x="367" y="811" type="curve" smooth="yes"/>
      <point x="356" y="844"/>
      <point x="346" y="879"/>
      <point x="334" y="917" type="curve" smooth="yes"/>
      <point x="311" y="990"/>
      <point x="287" y="1011"/>
      <point x="256" y="1011" type="curve" smooth="yes"/>
      <point x="242" y="1011" type="line" smooth="yes"/>
      <point x="199" y="1011"/>
      <point x="189" y="987"/>
      <point x="189" y="944" type="curve" smooth="yes"/>
      <point x="189" y="-360" type="line" smooth="yes"/>
      <point x="189" y="-403"/>
      <point x="213" y="-427"/>
    </contour>
    <contour>
      <point x="886" y="110" type="curve" smooth="yes"/>
      <point x="644" y="110"/>
      <point x="416" y="225"/>
      <point x="417" y="507" type="curve" smooth="yes"/>
      <point x="416" y="765"/>
      <point x="628" y="900"/>
      <point x="886" y="900" type="curve" smooth="yes"/>
      <point x="1140" y="900"/>
      <point x="1352" y="768"/>
      <point x="1352" y="507" type="curve" smooth="yes"/>
      <point x="1352" y="223"/>
      <point x="1124" y="110"/>
    </contour>
  </outline>
</glyph>
<glyph name="q" format="1">
  <advance width="1745"/>
  <unicode hex="0071"/>
  <outline>
    <contour>
      <point x="1389" y="-427" type="curve" smooth="yes"/>
      <point x="1483" y="-427" type="line" smooth="yes"/>
      <point x="1526" y="-427"/>
      <point x="1550" y="-403"/>
      <point x="1550" y="-360" type="curve" smooth="yes"/>
      <point x="1550" y="944" type="line" smooth="yes"/>
      <point x="1550" y="987"/>
      <point x="1540" y="1011"/>
      <point x="1497" y="1011" type="curve" smooth="yes"/>
      <point x="1483" y="1011" type="line" smooth="yes"/>
      <point x="1454" y="1011"/>
      <point x="1430" y="992"/>
      <point x="1410" y="927" type="curve" smooth="yes"/>
      <point x="1398" y="888"/>
      <point x="1380" y="843"/>
      <point x="1367" y="808" type="curve" smooth="yes"/>
      <point x="1365" y="802"/>
      <point x="1362" y="800"/>
      <point x="1360" y="800" type="curve" smooth="yes"/>
      <point x="1357" y="800"/>
      <point x="1355" y="802"/>
      <point x="1353" y="805" type="curve" smooth="yes"/>
      <point x="1236" y="968"/>
      <point x="1018" y="1052"/>
      <point x="818" y="1052" type="curve" smooth="yes"/>
      <point x="524" y="1052"/>
      <point x="158" y="904"/>
      <point x="158" y="507" type="curve" smooth="yes"/>
      <point x="158" y="99"/>
      <point x="512" y="-42"/>
      <point x="836" y="-42" type="curve" smooth="yes"/>
      <point x="1032" y="-42"/>
      <point x="1200" y="22"/>
      <point x="1310" y="148" type="curve"/>
      <point x="1311" y="149"/>
      <point x="1315" y="154"/>
      <point x="1318" y="154" type="curve" smooth="yes"/>
      <point x="1320" y="154"/>
      <point x="1322" y="152"/>
      <point x="1322" y="145" type="curve" smooth="yes"/>
      <point x="1322" y="-360" type="line" smooth="yes"/>
      <point x="1322" y="-403"/>
      <point x="1346" y="-427"/>
    </contour>
    <contour>
      <point x="853" y="110" type="curve" smooth="yes"/>
      <point x="615" y="110"/>
      <point x="387" y="223"/>
      <point x="387" y="507" type="curve" smooth="yes"/>
      <point x="387" y="768"/>
      <point x="599" y="900"/>
      <point x="853" y="900" type="curve" smooth="yes"/>
      <point x="1111" y="900"/>
      <point x="1323" y="765"/>
      <point x="1322" y="507" type="curve"/>
      <point x="1323" y="225"/>
      <point x="1095" y="110"/>
    </contour>
  </outline>
</glyph>
<glyph name="r" format="1">
  <advance width="1111"/>
  <unicode hex="0072"/>
  <outline>
    <contour>
      <point x="253" y="0" type="curve" smooth="yes"/>
      <point x="348" y="0" type="line" smooth="yes"/>
      <point x="391" y="0"/>
      <point x="414" y="24"/>
      <point x="414" y="67" type="curve" smooth="yes"/>
      <point x="414" y="606" type="line" smooth="yes"/>
      <point x="414" y="739"/>
      <point x="593" y="863"/>
      <point x="790" y="863" type="curve" smooth="yes"/>
      <point x="876" y="863" type="line" smooth="yes"/>
      <point x="919" y="863"/>
      <point x="943" y="883"/>
      <point x="943" y="926" type="curve" smooth="yes"/>
      <point x="943" y="985" type="line" smooth="yes"/>
      <point x="943" y="1028"/>
      <point x="919" y="1052"/>
      <point x="876" y="1052" type="curve" smooth="yes"/>
      <point x="829" y="1052" type="line" smooth="yes"/>
      <point x="642" y="1052"/>
      <point x="479" y="936"/>
      <point x="405" y="833" type="curve" smooth="yes"/>
      <point x="400" y="826"/>
      <point x="393" y="811"/>
      <point x="385" y="811" type="curve" smooth="yes"/>
      <point x="377" y="811"/>
      <point x="372" y="823"/>
      <point x="370" y="832" type="curve" smooth="yes"/>
      <point x="343" y="942" type="line" smooth="yes"/>
      <point x="331" y="992"/>
      <point x="310" y="1006"/>
      <point x="263" y="1006" type="curve" smooth="yes"/>
      <point x="243" y="1006" type="line" smooth="yes"/>
      <point x="200" y="1006"/>
      <point x="186" y="972"/>
      <point x="186" y="929" type="curve" smooth="yes"/>
      <point x="186" y="67" type="line" smooth="yes"/>
      <point x="186" y="24"/>
      <point x="210" y="0"/>
    </contour>
  </outline>
</glyph>
<glyph name="s" format="1">
  <advance width="1700"/>
  <unicode hex="0073"/>
  <outline>
    <contour>
      <point x="815" y="-41" type="curve" smooth="yes"/>
      <point x="1396" y="-41"/>
      <point x="1530" y="95"/>
      <point x="1530" y="307" type="curve" smooth="yes"/>
      <point x="1530" y="604"/>
      <point x="1218" y="600"/>
      <point x="838" y="619" type="curve" smooth="yes"/>
      <point x="409" y="640"/>
      <point x="400" y="659"/>
      <point x="400" y="755" type="curve" smooth="yes"/>
      <point x="400" y="859"/>
      <point x="538" y="900"/>
      <point x="856" y="900" type="curve" smooth="yes"/>
      <point x="1050" y="900"/>
      <point x="1214" y="871"/>
      <point x="1315" y="840" type="curve" smooth="yes"/>
      <point x="1354" y="828"/>
      <point x="1393" y="823"/>
      <point x="1411" y="862" type="curve" smooth="yes"/>
      <point x="1415" y="871" type="line" smooth="yes"/>
      <point x="1432" y="906"/>
      <point x="1416" y="955"/>
      <point x="1382" y="968" type="curve" smooth="yes"/>
      <point x="1214" y="1033"/>
      <point x="1024" y="1053"/>
      <point x="799" y="1053" type="curve" smooth="yes"/>
      <point x="567" y="1053"/>
      <point x="176" y="1032"/>
      <point x="176" y="732" type="curve" smooth="yes"/>
      <point x="176" y="503"/>
      <point x="429" y="459"/>
      <point x="796" y="448" type="curve" smooth="yes"/>
      <point x="1334" y="432"/>
      <point x="1331" y="395"/>
      <point x="1331" y="299" type="curve" smooth="yes"/>
      <point x="1331" y="185"/>
      <point x="1207" y="111"/>
      <point x="862" y="111" type="curve" smooth="yes"/>
      <point x="632" y="111"/>
      <point x="459" y="137"/>
      <point x="284" y="204" type="curve" smooth="yes"/>
      <point x="244" y="219"/>
      <point x="212" y="207"/>
      <point x="193" y="166" type="curve" smooth="yes"/>
      <point x="185" y="150" type="line" smooth="yes"/>
      <point x="170" y="116"/>
      <point x="189" y="72"/>
      <point x="222" y="59" type="curve" smooth="yes"/>
      <point x="409" y="-18"/>
      <point x="625" y="-41"/>
    </contour>
  </outline>
</glyph>
<glyph name="t" format="1">
  <advance width="1356"/>
  <unicode hex="0074"/>
  <outline>
    <contour>
      <point x="814" y="-41" type="curve" smooth="yes"/>
      <point x="979" y="-41"/>
      <point x="1048" y="-26"/>
      <point x="1127" y="5" type="curve" smooth="yes"/>
      <point x="1168" y="21"/>
      <point x="1183" y="48"/>
      <point x="1183" y="90" type="curve" smooth="yes"/>
      <point x="1183" y="103" type="line" smooth="yes"/>
      <point x="1183" y="138"/>
      <point x="1156" y="193"/>
      <point x="1099" y="174" type="curve" smooth="yes"/>
      <point x="1038" y="154"/>
      <point x="953" y="131"/>
      <point x="849" y="131" type="curve" smooth="yes"/>
      <point x="698" y="131"/>
      <point x="613" y="187"/>
      <point x="613" y="325" type="curve" smooth="yes"/>
      <point x="613" y="821" type="line" smooth="yes"/>
      <point x="613" y="841"/>
      <point x="620" y="848"/>
      <point x="640" y="848" type="curve" smooth="yes"/>
      <point x="1030" y="848" type="line" smooth="yes"/>
      <point x="1073" y="848"/>
      <point x="1097" y="872"/>
      <point x="1097" y="915" type="curve" smooth="yes"/>
      <point x="1097" y="939" type="line" smooth="yes"/>
      <point x="1097" y="982"/>
      <point x="1073" y="1006"/>
      <point x="1030" y="1006" type="curve" smooth="yes"/>
      <point x="640" y="1006" type="line" smooth="yes"/>
      <point x="620" y="1006"/>
      <point x="613" y="1013"/>
      <point x="613" y="1033" type="curve" smooth="yes"/>
      <point x="613" y="1408" type="line" smooth="yes"/>
      <point x="613" y="1451"/>
      <point x="589" y="1475"/>
      <point x="546" y="1475" type="curve" smooth="yes"/>
      <point x="472" y="1475" type="line" smooth="yes"/>
      <point x="429" y="1475"/>
      <point x="413" y="1450"/>
      <point x="405" y="1408" type="curve" smooth="yes"/>
      <point x="385" y="1033" type="line"/>
      <point x="385" y="1013"/>
      <point x="378" y="1006"/>
      <point x="358" y="1006" type="curve" smooth="yes"/>
      <point x="213" y="1006" type="line" smooth="yes"/>
      <point x="170" y="1006"/>
      <point x="146" y="982"/>
      <point x="146" y="939" type="curve" smooth="yes"/>
      <point x="146" y="915" type="line" smooth="yes"/>
      <point x="146" y="872"/>
      <point x="170" y="848"/>
      <point x="213" y="848" type="curve" smooth="yes"/>
      <point x="358" y="848" type="line" smooth="yes"/>
      <point x="378" y="848"/>
      <point x="385" y="841"/>
      <point x="385" y="821" type="curve" smooth="yes"/>
      <point x="385" y="370" type="line" smooth="yes"/>
      <point x="385" y="143"/>
      <point x="530" y="-41"/>
    </contour>
  </outline>
</glyph>
<glyph name="u" format="1">
  <advance width="1613"/>
  <unicode hex="0075"/>
  <outline>
    <contour>
      <point x="696" y="-47" type="curve" smooth="yes"/>
      <point x="886" y="-47"/>
      <point x="1072" y="19"/>
      <point x="1202" y="180" type="curve" smooth="yes"/>
      <point x="1208" y="187"/>
      <point x="1214" y="195"/>
      <point x="1222" y="195" type="curve" smooth="yes"/>
      <point x="1230" y="195"/>
      <point x="1232" y="190"/>
      <point x="1237" y="182" type="curve"/>
      <point x="1264" y="64" type="line" smooth="yes"/>
      <point x="1275" y="14"/>
      <point x="1297" y="0"/>
      <point x="1344" y="0" type="curve" smooth="yes"/>
      <point x="1364" y="0" type="line" smooth="yes"/>
      <point x="1407" y="0"/>
      <point x="1421" y="34"/>
      <point x="1421" y="77" type="curve" smooth="yes"/>
      <point x="1421" y="939" type="line" smooth="yes"/>
      <point x="1421" y="982"/>
      <point x="1397" y="1006"/>
      <point x="1354" y="1006" type="curve" smooth="yes"/>
      <point x="1259" y="1006" type="line" smooth="yes"/>
      <point x="1216" y="1006"/>
      <point x="1193" y="982"/>
      <point x="1193" y="939" type="curve" smooth="yes"/>
      <point x="1193" y="400" type="line" smooth="yes"/>
      <point x="1193" y="267"/>
      <point x="936" y="111"/>
      <point x="739" y="111" type="curve" smooth="yes"/>
      <point x="553" y="111"/>
      <point x="404" y="175"/>
      <point x="404" y="400" type="curve" smooth="yes"/>
      <point x="404" y="939" type="line" smooth="yes"/>
      <point x="404" y="982"/>
      <point x="380" y="1006"/>
      <point x="337" y="1006" type="curve" smooth="yes"/>
      <point x="243" y="1006" type="line" smooth="yes"/>
      <point x="200" y="1006"/>
      <point x="176" y="982"/>
      <point x="176" y="939" type="curve" smooth="yes"/>
      <point x="176" y="454" type="line" smooth="yes"/>
      <point x="176" y="118"/>
      <point x="384" y="-47"/>
    </contour>
  </outline>
</glyph>
<glyph name="v" format="1">
  <advance width="1628"/>
  <unicode hex="0076"/>
  <outline>
    <contour>
      <point x="769" y="1" type="curve" smooth="yes"/>
      <point x="879" y="1" type="line" smooth="yes"/>
      <point x="919" y="1"/>
      <point x="957" y="27"/>
      <point x="985" y="67" type="curve"/>
      <point x="1466" y="939" type="line"/>
      <point x="1478" y="957"/>
      <point x="1484" y="971"/>
      <point x="1484" y="982" type="curve" smooth="yes"/>
      <point x="1484" y="998"/>
      <point x="1471" y="1006"/>
      <point x="1446" y="1006" type="curve" smooth="yes"/>
      <point x="1322" y="1006" type="line" smooth="yes"/>
      <point x="1279" y="1006"/>
      <point x="1251" y="985"/>
      <point x="1228" y="939" type="curve" smooth="yes"/>
      <point x="843" y="175" type="line" smooth="yes"/>
      <point x="840" y="169"/>
      <point x="835" y="166"/>
      <point x="831" y="166" type="curve" smooth="yes"/>
      <point x="826" y="166"/>
      <point x="821" y="169"/>
      <point x="818" y="175" type="curve" smooth="yes"/>
      <point x="394" y="939" type="line" smooth="yes"/>
      <point x="370" y="982"/>
      <point x="353" y="1006"/>
      <point x="310" y="1006" type="curve" smooth="yes"/>
      <point x="186" y="1006" type="line" smooth="yes"/>
      <point x="158" y="1006"/>
      <point x="144" y="996"/>
      <point x="144" y="977" type="curve" smooth="yes"/>
      <point x="144" y="967"/>
      <point x="148" y="954"/>
      <point x="156" y="939" type="curve" smooth="yes"/>
      <point x="673" y="67" type="line" smooth="yes"/>
      <point x="696" y="27"/>
      <point x="730" y="1"/>
    </contour>
  </outline>
</glyph>
<glyph name="w" format="1">
  <advance width="2566"/>
  <unicode hex="0077"/>
  <outline>
    <contour>
      <point x="716" y="0" type="curve" smooth="yes"/>
      <point x="834" y="0" type="line" smooth="yes"/>
      <point x="874" y="0"/>
      <point x="919" y="23"/>
      <point x="940" y="67" type="curve" smooth="yes"/>
      <point x="1273" y="781" type="line"/>
      <point x="1274" y="784"/>
      <point x="1279" y="788"/>
      <point x="1284" y="788" type="curve" smooth="yes"/>
      <point x="1288" y="788"/>
      <point x="1291" y="787"/>
      <point x="1294" y="781" type="curve" smooth="yes"/>
      <point x="1656" y="67" type="line" smooth="yes"/>
      <point x="1677" y="26"/>
      <point x="1713" y="0"/>
      <point x="1752" y="0" type="curve" smooth="yes"/>
      <point x="1872" y="0" type="line" smooth="yes"/>
      <point x="1912" y="0"/>
      <point x="1957" y="23"/>
      <point x="1978" y="67" type="curve" smooth="yes"/>
      <point x="2403" y="939" type="line"/>
      <point x="2415" y="957"/>
      <point x="2421" y="971"/>
      <point x="2421" y="982" type="curve" smooth="yes"/>
      <point x="2421" y="998"/>
      <point x="2408" y="1006"/>
      <point x="2383" y="1006" type="curve" smooth="yes"/>
      <point x="2259" y="1006" type="line" smooth="yes"/>
      <point x="2216" y="1006"/>
      <point x="2186" y="986"/>
      <point x="2165" y="939" type="curve" smooth="yes"/>
      <point x="1829" y="183" type="line"/>
      <point x="1828" y="180"/>
      <point x="1822" y="175"/>
      <point x="1816" y="175" type="curve" smooth="yes"/>
      <point x="1812" y="175"/>
      <point x="1808" y="177"/>
      <point x="1805" y="183" type="curve" smooth="yes"/>
      <point x="1411" y="939" type="line" smooth="yes"/>
      <point x="1389" y="980"/>
      <point x="1372" y="1006"/>
      <point x="1335" y="1006" type="curve" smooth="yes"/>
      <point x="1243" y="1006" type="line" smooth="yes"/>
      <point x="1200" y="1006"/>
      <point x="1171" y="986"/>
      <point x="1149" y="939" type="curve" smooth="yes"/>
      <point x="794" y="183" type="line" smooth="yes"/>
      <point x="791" y="177"/>
      <point x="787" y="173"/>
      <point x="782" y="173" type="curve" smooth="yes"/>
      <point x="778" y="173"/>
      <point x="774" y="176"/>
      <point x="770" y="183" type="curve"/>
      <point x="395" y="939" type="line" smooth="yes"/>
      <point x="373" y="983"/>
      <point x="354" y="1006"/>
      <point x="311" y="1006" type="curve" smooth="yes"/>
      <point x="187" y="1006" type="line" smooth="yes"/>
      <point x="159" y="1006"/>
      <point x="145" y="996"/>
      <point x="145" y="977" type="curve" smooth="yes"/>
      <point x="145" y="967"/>
      <point x="149" y="954"/>
      <point x="157" y="939" type="curve" smooth="yes"/>
      <point x="620" y="67" type="line" smooth="yes"/>
      <point x="643" y="27"/>
      <point x="677" y="0"/>
    </contour>
  </outline>
</glyph>
<glyph name="x" format="1">
  <advance width="1799"/>
  <unicode hex="0078"/>
  <outline>
    <contour>
      <point x="202" y="0" type="curve" smooth="yes"/>
      <point x="331" y="0" type="line" smooth="yes"/>
      <point x="378" y="0"/>
      <point x="432" y="18"/>
      <point x="469" y="47" type="curve" smooth="yes"/>
      <point x="542" y="103"/>
      <point x="701" y="229"/>
      <point x="883" y="375" type="curve"/>
      <point x="894" y="380"/>
      <point x="902" y="381"/>
      <point x="907" y="381" type="curve" smooth="yes"/>
      <point x="915" y="381"/>
      <point x="918" y="378"/>
      <point x="922" y="375" type="curve" smooth="yes"/>
      <point x="1104" y="228"/>
      <point x="1264" y="98"/>
      <point x="1323" y="50" type="curve" smooth="yes"/>
      <point x="1359" y="21"/>
      <point x="1411" y="0"/>
      <point x="1458" y="0" type="curve" smooth="yes"/>
      <point x="1595" y="0" type="line" smooth="yes"/>
      <point x="1612" y="0"/>
      <point x="1623" y="14"/>
      <point x="1623" y="28" type="curve" smooth="yes"/>
      <point x="1623" y="35"/>
      <point x="1620" y="42"/>
      <point x="1613" y="48" type="curve" smooth="yes"/>
      <point x="1398" y="219"/>
      <point x="1213" y="368"/>
      <point x="1057" y="493" type="curve"/>
      <point x="1053" y="499"/>
      <point x="1052" y="504"/>
      <point x="1052" y="507" type="curve" smooth="yes"/>
      <point x="1052" y="511"/>
      <point x="1054" y="513"/>
      <point x="1057" y="515" type="curve"/>
      <point x="1257" y="678"/>
      <point x="1464" y="845"/>
      <point x="1606" y="960" type="curve"/>
      <point x="1613" y="965"/>
      <point x="1617" y="973"/>
      <point x="1617" y="981" type="curve" smooth="yes"/>
      <point x="1617" y="994"/>
      <point x="1607" y="1006"/>
      <point x="1591" y="1006" type="curve" smooth="yes"/>
      <point x="1452" y="1006" type="line" smooth="yes"/>
      <point x="1405" y="1006"/>
      <point x="1382" y="987"/>
      <point x="1345" y="958" type="curve" smooth="yes"/>
      <point x="1277" y="903"/>
      <point x="1120" y="777"/>
      <point x="920" y="622" type="curve"/>
      <point x="913" y="619"/>
      <point x="909" y="618"/>
      <point x="906" y="618" type="curve" smooth="yes"/>
      <point x="901" y="618"/>
      <point x="898" y="620"/>
      <point x="896" y="622" type="curve"/>
      <point x="690" y="787"/>
      <point x="551" y="899"/>
      <point x="480" y="956" type="curve" smooth="yes"/>
      <point x="443" y="985"/>
      <point x="415" y="1006"/>
      <point x="368" y="1006" type="curve" smooth="yes"/>
      <point x="225" y="1006" type="line" smooth="yes"/>
      <point x="208" y="1006"/>
      <point x="197" y="992"/>
      <point x="197" y="978" type="curve" smooth="yes"/>
      <point x="197" y="971"/>
      <point x="200" y="963"/>
      <point x="207" y="958" type="curve"/>
      <point x="287" y="892"/>
      <point x="520" y="702"/>
      <point x="755" y="511" type="curve"/>
      <point x="758" y="506"/>
      <point x="760" y="502"/>
      <point x="760" y="499" type="curve" smooth="yes"/>
      <point x="760" y="495"/>
      <point x="757" y="494"/>
      <point x="755" y="492" type="curve"/>
      <point x="574" y="349"/>
      <point x="374" y="193"/>
      <point x="186" y="46" type="curve" smooth="yes"/>
      <point x="179" y="41"/>
      <point x="176" y="33"/>
      <point x="176" y="26" type="curve" smooth="yes"/>
      <point x="176" y="13"/>
      <point x="186" y="0"/>
    </contour>
  </outline>
</glyph>
<glyph name="y" format="1">
  <advance width="1710"/>
  <unicode hex="0079"/>
  <outline>
    <contour>
      <point x="623" y="-694" type="curve" smooth="yes"/>
      <point x="837" y="-686"/>
      <point x="916" y="-513"/>
      <point x="1032" y="-249" type="curve" smooth="yes"/>
      <point x="1552" y="936" type="line" smooth="yes"/>
      <point x="1555" y="943"/>
      <point x="1557" y="950"/>
      <point x="1557" y="957" type="curve" smooth="yes"/>
      <point x="1557" y="983"/>
      <point x="1536" y="1006"/>
      <point x="1507" y="1006" type="curve" smooth="yes"/>
      <point x="1418" y="1006" type="line" smooth="yes"/>
      <point x="1372" y="1006"/>
      <point x="1330" y="977"/>
      <point x="1315" y="934" type="curve"/>
      <point x="939" y="14" type="line" smooth="yes"/>
      <point x="936" y="7"/>
      <point x="930" y="3"/>
      <point x="924" y="3" type="curve" smooth="yes"/>
      <point x="918" y="3"/>
      <point x="912" y="6"/>
      <point x="910" y="12" type="curve"/>
      <point x="406" y="937" type="line"/>
      <point x="386" y="979"/>
      <point x="341" y="1006"/>
      <point x="295" y="1006" type="curve" smooth="yes"/>
      <point x="194" y="1006" type="line" smooth="yes"/>
      <point x="168" y="1006"/>
      <point x="150" y="985"/>
      <point x="150" y="962" type="curve" smooth="yes"/>
      <point x="150" y="955"/>
      <point x="152" y="947"/>
      <point x="156" y="940" type="curve" smooth="yes"/>
      <point x="773" y="-115" type="line" smooth="yes"/>
      <point x="795" y="-154"/>
      <point x="805" y="-167"/>
      <point x="805" y="-198" type="curve" smooth="yes"/>
      <point x="805" y="-349"/>
      <point x="728" y="-539"/>
      <point x="617" y="-539" type="curve" smooth="yes"/>
      <point x="589" y="-539" type="line" smooth="yes"/>
      <point x="532.333" y="-539"/>
      <point x="458.378" y="-506.652"/>
      <point x="396.968" y="-476.046" type="curve"/>
      <point x="392.25" y="-473.126"/>
      <point x="386.481" y="-471.543"/>
      <point x="380.228" y="-471.543" type="curve" smooth="yes"/>
      <point x="364.75" y="-471.543"/>
      <point x="346.307" y="-481.245"/>
      <point x="333.5" y="-504.388" type="curve" smooth="yes"/>
      <point x="311.019" y="-545.014" type="line" smooth="yes"/>
      <point x="306.984" y="-552.305"/>
      <point x="305.15" y="-559.532"/>
      <point x="305.15" y="-566.545" type="curve" smooth="yes"/>
      <point x="305.15" y="-581.162"/>
      <point x="313.117" y="-594.855"/>
      <point x="325.731" y="-606.283" type="curve" smooth="yes"/>
      <point x="390.304399564" y="-662.215599613"/>
      <point x="486.113087772" y="-698.981904976"/>
    </contour>
  </outline>
</glyph>
<glyph name="z" format="1">
  <advance width="1546"/>
  <unicode hex="007A"/>
  <outline>
    <contour>
      <point x="247" y="0" type="curve" smooth="yes"/>
      <point x="1328" y="0" type="line" smooth="yes"/>
      <point x="1348" y="0"/>
      <point x="1365" y="17"/>
      <point x="1365" y="37" type="curve" smooth="yes"/>
      <point x="1365" y="121" type="line" smooth="yes"/>
      <point x="1365" y="141"/>
      <point x="1348" y="158"/>
      <point x="1328" y="158" type="curve" smooth="yes"/>
      <point x="489" y="158" type="line"/>
      <point x="1297" y="807" type="line" smooth="yes"/>
      <point x="1314" y="821"/>
      <point x="1326" y="845"/>
      <point x="1326" y="868" type="curve" smooth="yes"/>
      <point x="1326" y="969" type="line" smooth="yes"/>
      <point x="1326" y="989"/>
      <point x="1279" y="1006"/>
      <point x="1259" y="1006" type="curve" smooth="yes"/>
      <point x="221" y="1006" type="line" smooth="yes"/>
      <point x="201" y="1006"/>
      <point x="184" y="989"/>
      <point x="184" y="969" type="curve" smooth="yes"/>
      <point x="184" y="885" type="line" smooth="yes"/>
      <point x="184" y="865"/>
      <point x="201" y="848"/>
      <point x="221" y="848" type="curve" smooth="yes"/>
      <point x="1062" y="848" type="line"/>
      <point x="209" y="181" type="line"/>
      <point x="192" y="170"/>
      <point x="180" y="144"/>
      <point x="180" y="121" type="curve" smooth="yes"/>
      <point x="180" y="37" type="line" smooth="yes"/>
      <point x="180" y="17"/>
      <point x="227" y="0"/>
    </contour>
  </outline>
</glyph>
<glyph name="braceleft" format="1">
  <advance width="1280"/>
  <unicode hex="007B"/>
  <outline>
    <contour>
      <point x="758" y="-123" type="curve" smooth="yes"/>
      <point x="1028" y="-123" type="line" smooth="yes"/>
      <point x="1070" y="-123"/>
      <point x="1105" y="-88"/>
      <point x="1105" y="-46" type="curve" smooth="yes"/>
      <point x="1105" y="64" type="line" smooth="yes"/>
      <point x="1105" y="116"/>
      <point x="1080" y="147"/>
      <point x="1029" y="158" type="curve" smooth="yes"/>
      <point x="772" y="214"/>
      <point x="990" y="572"/>
      <point x="752" y="695" type="curve" smooth="yes"/>
      <point x="738" y="702"/>
      <point x="738" y="718"/>
      <point x="752" y="725" type="curve" smooth="yes"/>
      <point x="990" y="848"/>
      <point x="772" y="1206"/>
      <point x="1029" y="1262" type="curve" smooth="yes"/>
      <point x="1080" y="1273"/>
      <point x="1105" y="1304"/>
      <point x="1105" y="1356" type="curve" smooth="yes"/>
      <point x="1105" y="1466" type="line" smooth="yes"/>
      <point x="1105" y="1508"/>
      <point x="1070" y="1543"/>
      <point x="1028" y="1543" type="curve" smooth="yes"/>
      <point x="758" y="1543" type="line" smooth="yes"/>
      <point x="280" y="1543"/>
      <point x="515" y="942"/>
      <point x="223" y="857" type="curve" smooth="yes"/>
      <point x="169" y="841"/>
      <point x="147" y="812"/>
      <point x="147" y="756" type="curve" smooth="yes"/>
      <point x="147" y="664" type="line" smooth="yes"/>
      <point x="147" y="608"/>
      <point x="169" y="579"/>
      <point x="223" y="563" type="curve" smooth="yes"/>
      <point x="515" y="478"/>
      <point x="280" y="-123"/>
    </contour>
  </outline>
</glyph>
<glyph name="bar" format="1">
  <advance width="1007"/>
  <unicode hex="007C"/>
  <outline>
    <contour>
      <point x="417.0" y="-150.0" type="curve" smooth="yes"/>
      <point x="470" y="-150" type="line" smooth="yes"/>
      <point x="513" y="-150"/>
      <point x="547" y="-136"/>
      <point x="547" y="-93" type="curve" smooth="yes"/>
      <point x="547" y="1498" type="line" smooth="yes"/>
      <point x="547" y="1541"/>
      <point x="513" y="1555"/>
      <point x="470" y="1555" type="curve" smooth="yes"/>
      <point x="417.0" y="1555.0" type="line" smooth="yes"/>
      <point x="374.0" y="1555.0"/>
      <point x="340" y="1541"/>
      <point x="340" y="1498" type="curve" smooth="yes"/>
      <point x="340" y="-93" type="line" smooth="yes"/>
      <point x="340" y="-136"/>
      <point x="374.0" y="-150.0"/>
    </contour>
  </outline>
</glyph>
<glyph name="dieresis" format="1">
  <advance width="709"/>
  <unicode hex="00A8"/>
  <outline>
    <contour>
      <point x="291" y="0" type="curve" smooth="yes"/>
      <point x="418" y="0" type="line" smooth="yes"/>
      <point x="461" y="0"/>
      <point x="495" y="34"/>
      <point x="495" y="77" type="curve" smooth="yes"/>
      <point x="495" y="173" type="line" smooth="yes"/>
      <point x="495" y="216"/>
      <point x="461" y="250"/>
      <point x="418" y="250" type="curve" smooth="yes"/>
      <point x="291" y="250" type="line" smooth="yes"/>
      <point x="248" y="250"/>
      <point x="214" y="216"/>
      <point x="214" y="173" type="curve" smooth="yes"/>
      <point x="214" y="77" type="line" smooth="yes"/>
      <point x="214" y="34"/>
      <point x="248" y="0"/>
    </contour>
    <contour>
      <point x="892" y="0" type="curve" smooth="yes"/>
      <point x="1019" y="0" type="line" smooth="yes"/>
      <point x="1062" y="0"/>
      <point x="1096" y="34"/>
      <point x="1096" y="77" type="curve" smooth="yes"/>
      <point x="1096" y="173" type="line" smooth="yes"/>
      <point x="1096" y="216"/>
      <point x="1062" y="250"/>
      <point x="1019" y="250" type="curve" smooth="yes"/>
      <point x="892" y="250" type="line" smooth="yes"/>
      <point x="849" y="250"/>
      <point x="815" y="216"/>
      <point x="815" y="173" type="curve" smooth="yes"/>
      <point x="815" y="77" type="line" smooth="yes"/>
      <point x="815" y="34"/>
      <point x="849" y="0"/>
    </contour>
  </outline>
</glyph>
<glyph name="acute" format="1">
  <advance width="1745"/>
  <unicode hex="00B4"/>
  <outline>
    <contour>
      <point x="1120" y="1166" type="curve" smooth="yes"/>
      <point x="1160" y="1166" type="line" smooth="yes"/>
      <point x="1198" y="1166"/>
      <point x="1206" y="1188"/>
      <point x="1216" y="1205" type="curve" smooth="yes"/>
      <point x="1398" y="1533" type="line" smooth="yes"/>
      <point x="1405" y="1545"/>
      <point x="1410" y="1559"/>
      <point x="1410" y="1570" type="curve" smooth="yes"/>
      <point x="1410" y="1586"/>
      <point x="1402" y="1598"/>
      <point x="1382" y="1598" type="curve" smooth="yes"/>
      <point x="1216" y="1598" type="line" smooth="yes"/>
      <point x="1172" y="1598"/>
      <point x="1153" y="1586"/>
      <point x="1145" y="1543" type="curve" smooth="yes"/>
      <point x="1082" y="1233" type="line" smooth="yes"/>
      <point x="1079" y="1219"/>
      <point x="1078" y="1207"/>
      <point x="1078" y="1198" type="curve" smooth="yes"/>
      <point x="1078" y="1171"/>
      <point x="1091" y="1166"/>
    </contour>
  </outline>
</glyph>
<glyph name="cedilla" format="1">
  <advance width="716"/>
  <unicode hex="00B8"/>
  <outline>
    <contour>
      <point x="403" y="-642" type="curve" smooth="yes"/>
      <point x="547" y="-642"/>
      <point x="620" y="-548"/>
      <point x="620" y="-370" type="curve" smooth="yes"/>
      <point x="620" y="-259"/>
      <point x="547" y="-156"/>
      <point x="439" y="-156" type="curve" smooth="yes"/>
      <point x="419" y="-156"/>
      <point x="382" y="-156"/>
      <point x="363" y="-156" type="curve"/>
      <point x="350" y="-156"/>
      <point x="347" y="-163"/>
      <point x="347" y="-173" type="curve" smooth="yes"/>
      <point x="347" y="-187"/>
      <point x="347" y="-234"/>
      <point x="347" y="-244" type="curve" smooth="yes"/>
      <point x="347" y="-255"/>
      <point x="363" y="-254"/>
      <point x="363" y="-254" type="curve" smooth="yes"/>
      <point x="374" y="-254"/>
      <point x="391" y="-254"/>
      <point x="402" y="-254" type="curve" smooth="yes"/>
      <point x="452" y="-254"/>
      <point x="483" y="-331"/>
      <point x="483" y="-407" type="curve" smooth="yes"/>
      <point x="483" y="-517"/>
      <point x="457" y="-557"/>
      <point x="410" y="-557" type="curve" smooth="yes"/>
      <point x="360" y="-557"/>
      <point x="338" y="-514"/>
      <point x="338" y="-461" type="curve" smooth="yes"/>
      <point x="338" y="-444"/>
      <point x="340" y="-427"/>
      <point x="343" y="-409" type="curve" smooth="yes"/>
      <point x="346" y="-389"/>
      <point x="333" y="-373"/>
      <point x="312" y="-373" type="curve" smooth="yes"/>
      <point x="249" y="-373" type="line" smooth="yes"/>
      <point x="230" y="-373"/>
      <point x="209" y="-389"/>
      <point x="205" y="-408" type="curve" smooth="yes"/>
      <point x="201" y="-427"/>
      <point x="199" y="-446"/>
      <point x="199" y="-464" type="curve" smooth="yes"/>
      <point x="199" y="-572"/>
      <point x="289" y="-642"/>
    </contour>
  </outline>
</glyph>
<glyph name="OE" format="1">
  <advance width="3750"/>
  <unicode hex="0152"/>
  <outline>
    <contour>
      <point x="1479" y="-1" type="curve" smooth="yes"/>
      <point x="1552" y="-1"/>
      <point x="1487" y="0"/>
      <point x="3486" y="0" type="curve" smooth="yes"/>
      <point x="3529" y="0"/>
      <point x="3563" y="34"/>
      <point x="3563" y="77" type="curve" smooth="yes"/>
      <point x="3563" y="300" type="line" smooth="yes"/>
      <point x="3563" y="343"/>
      <point x="3529" y="377"/>
      <point x="3486" y="377" type="curve" smooth="yes"/>
      <point x="2512" y="377" type="line" smooth="yes"/>
      <point x="2492" y="377"/>
      <point x="2475" y="394"/>
      <point x="2475" y="414" type="curve" smooth="yes"/>
      <point x="2475" y="541" type="line" smooth="yes"/>
      <point x="2475" y="561"/>
      <point x="2492" y="578"/>
      <point x="2512" y="578" type="curve" smooth="yes"/>
      <point x="3219" y="578" type="line" smooth="yes"/>
      <point x="3262" y="578"/>
      <point x="3296" y="612"/>
      <point x="3296" y="655" type="curve" smooth="yes"/>
      <point x="3296" y="804" type="line" smooth="yes"/>
      <point x="3296" y="847"/>
      <point x="3262" y="881"/>
      <point x="3219" y="881" type="curve" smooth="yes"/>
      <point x="2512" y="881" type="line" smooth="yes"/>
      <point x="2492" y="881"/>
      <point x="2475" y="898"/>
      <point x="2475" y="918" type="curve" smooth="yes"/>
      <point x="2475" y="1018" type="line" smooth="yes"/>
      <point x="2475" y="1038"/>
      <point x="2492" y="1055"/>
      <point x="2512" y="1055" type="curve" smooth="yes"/>
      <point x="3409" y="1055" type="line" smooth="yes"/>
      <point x="3452" y="1055"/>
      <point x="3486" y="1089"/>
      <point x="3486" y="1132" type="curve" smooth="yes"/>
      <point x="3486" y="1361" type="line" smooth="yes"/>
      <point x="3486" y="1403"/>
      <point x="3451" y="1438"/>
      <point x="3409" y="1438" type="curve" smooth="yes"/>
      <point x="1396" y="1438" type="line" smooth="yes"/>
      <point x="865" y="1438"/>
      <point x="155" y="1291"/>
      <point x="155" y="721" type="curve" smooth="yes"/>
      <point x="155" y="70"/>
      <point x="945" y="-1"/>
    </contour>
    <contour>
      <point x="1436" y="376" type="line" smooth="yes"/>
      <point x="1176" y="376"/>
      <point x="1013" y="454"/>
      <point x="1013" y="721" type="curve" smooth="yes"/>
      <point x="1013" y="988"/>
      <point x="1176" y="1065"/>
      <point x="1436" y="1065" type="curve" smooth="yes"/>
      <point x="1648" y="1065" type="line" smooth="yes"/>
      <point x="1668" y="1065"/>
      <point x="1685" y="1048"/>
      <point x="1685" y="1028" type="curve" smooth="yes"/>
      <point x="1685" y="413" type="line" smooth="yes"/>
      <point x="1685" y="393"/>
      <point x="1668" y="376"/>
      <point x="1648" y="376" type="curve" smooth="yes"/>
    </contour>
  </outline>
</glyph>
<glyph name="caron" format="1">
  <advance width="849"/>
  <unicode hex="02C7"/>
  <outline>
    <contour>
      <point x="378" y="1217" type="curve" smooth="yes"/>
      <point x="461" y="1217" type="line" smooth="yes"/>
      <point x="508" y="1217"/>
      <point x="560" y="1237"/>
      <point x="595" y="1269" type="curve" smooth="yes"/>
      <point x="758" y="1424" type="line" smooth="yes"/>
      <point x="765" y="1430"/>
      <point x="768" y="1439"/>
      <point x="768" y="1446" type="curve" smooth="yes"/>
      <point x="768" y="1462"/>
      <point x="756" y="1476"/>
      <point x="738" y="1476" type="curve" smooth="yes"/>
      <point x="705" y="1476" type="line" smooth="yes"/>
      <point x="659" y="1476"/>
      <point x="601" y="1461"/>
      <point x="561" y="1438" type="curve" smooth="yes"/>
      <point x="451" y="1370" type="line" smooth="yes"/>
      <point x="441" y="1364"/>
      <point x="430" y="1362"/>
      <point x="419" y="1362" type="curve" smooth="yes"/>
      <point x="408" y="1362"/>
      <point x="396" y="1364"/>
      <point x="387" y="1370" type="curve" smooth="yes"/>
      <point x="278" y="1438" type="line" smooth="yes"/>
      <point x="238" y="1461"/>
      <point x="180" y="1476"/>
      <point x="134" y="1476" type="curve" smooth="yes"/>
      <point x="101" y="1476" type="line" smooth="yes"/>
      <point x="83" y="1476"/>
      <point x="71" y="1462"/>
      <point x="71" y="1446" type="curve" smooth="yes"/>
      <point x="71" y="1439"/>
      <point x="74" y="1430"/>
      <point x="81" y="1424" type="curve" smooth="yes"/>
      <point x="244" y="1269" type="line" smooth="yes"/>
      <point x="279" y="1237"/>
      <point x="331" y="1217"/>
    </contour>
  </outline>
</glyph>
<glyph name="ring" format="1">
  <advance width="1717"/>
  <unicode hex="02DA"/>
  <outline>
    <contour>
      <point x="829" y="222" type="curve" smooth="yes"/>
      <point x="747" y="222"/>
      <point x="680" y="268"/>
      <point x="682" y="359" type="curve" smooth="yes"/>
      <point x="680" y="458"/>
      <point x="752" y="496"/>
      <point x="829" y="496" type="curve" smooth="yes"/>
      <point x="903" y="496"/>
      <point x="975" y="458"/>
      <point x="975" y="359" type="curve" smooth="yes"/>
      <point x="975" y="267"/>
      <point x="908" y="222"/>
    </contour>
    <contour>
      <point x="829" y="135" type="curve" smooth="yes"/>
      <point x="937" y="135"/>
      <point x="1083" y="196"/>
      <point x="1083" y="359" type="curve" smooth="yes"/>
      <point x="1083" y="527"/>
      <point x="948" y="584"/>
      <point x="829" y="584" type="curve" smooth="yes"/>
      <point x="708" y="584"/>
      <point x="573" y="527"/>
      <point x="573" y="359" type="curve" smooth="yes"/>
      <point x="573" y="195"/>
      <point x="719" y="135"/>
    </contour>
  </outline>
</glyph>
<glyph name="hungarumlaut" format="1">
  <advance width="1745"/>
  <unicode hex="02DD"/>
  <outline>
    <contour>
      <point x="757" y="1166" type="curve" smooth="yes"/>
      <point x="777" y="1166" type="line" smooth="yes"/>
      <point x="815" y="1166"/>
      <point x="818" y="1181"/>
      <point x="833" y="1205" type="curve" smooth="yes"/>
      <point x="1035" y="1533" type="line" smooth="yes"/>
      <point x="1042" y="1545"/>
      <point x="1047" y="1559"/>
      <point x="1047" y="1570" type="curve" smooth="yes"/>
      <point x="1047" y="1586"/>
      <point x="1039" y="1598"/>
      <point x="1019" y="1598" type="curve" smooth="yes"/>
      <point x="853" y="1598" type="line" smooth="yes"/>
      <point x="809" y="1598"/>
      <point x="790" y="1586"/>
      <point x="782" y="1543" type="curve" smooth="yes"/>
      <point x="719" y="1233" type="line" smooth="yes"/>
      <point x="716" y="1219"/>
      <point x="715" y="1207"/>
      <point x="715" y="1198" type="curve" smooth="yes"/>
      <point x="715" y="1171"/>
      <point x="728" y="1166"/>
    </contour>
    <contour>
      <point x="1120.0" y="1166.0" type="curve" smooth="yes"/>
      <point x="1140" y="1166" type="line" smooth="yes"/>
      <point x="1178" y="1166"/>
      <point x="1181" y="1181"/>
      <point x="1196" y="1205" type="curve" smooth="yes"/>
      <point x="1398.0" y="1533.0" type="line" smooth="yes"/>
      <point x="1405.0" y="1545.0"/>
      <point x="1410.0" y="1559.0"/>
      <point x="1410.0" y="1570.0" type="curve" smooth="yes"/>
      <point x="1410.0" y="1586.0"/>
      <point x="1402.0" y="1598.0"/>
      <point x="1382.0" y="1598.0" type="curve" smooth="yes"/>
      <point x="1216.0" y="1598.0" type="line" smooth="yes"/>
      <point x="1172.0" y="1598.0"/>
      <point x="1153.0" y="1586.0"/>
      <point x="1145.0" y="1543.0" type="curve" smooth="yes"/>
      <point x="1082.0" y="1233.0" type="line" smooth="yes"/>
      <point x="1079.0" y="1219.0"/>
      <point x="1078.0" y="1207.0"/>
      <point x="1078.0" y="1198.0" type="curve" smooth="yes"/>
      <point x="1078.0" y="1171.0"/>
      <point x="1091.0" y="1166.0"/>
    </contour>
  </outline>
</glyph>
<glyph name="quoteleft" format="1">
  <advance width="714"/>
  <unicode hex="2018"/>
  <outline>
    <contour>
      <point x="242" y="911" type="curve" smooth="yes"/>
      <point x="440" y="911" type="line" smooth="yes"/>
      <point x="483" y="911"/>
      <point x="500" y="932"/>
      <point x="500" y="975" type="curve" smooth="yes"/>
      <point x="500" y="1178" type="line" smooth="yes"/>
      <point x="500" y="1216"/>
      <point x="478" y="1228"/>
      <point x="440" y="1228" type="curve" smooth="yes"/>
      <point x="355" y="1228" type="line" smooth="yes"/>
      <point x="340" y="1228"/>
      <point x="338" y="1239"/>
      <point x="338" y="1255" type="curve" smooth="yes"/>
      <point x="338" y="1279"/>
      <point x="370" y="1356"/>
      <point x="439" y="1399" type="curve" smooth="yes"/>
      <point x="482" y="1426"/>
      <point x="500" y="1420"/>
      <point x="500" y="1474" type="curve" smooth="yes"/>
      <point x="500" y="1484" type="line" smooth="yes"/>
      <point x="500" y="1520"/>
      <point x="469" y="1535"/>
      <point x="434" y="1529" type="curve" smooth="yes"/>
      <point x="296" y="1506"/>
      <point x="165" y="1370"/>
      <point x="165" y="1133" type="curve" smooth="yes"/>
      <point x="165" y="988" type="line" smooth="yes"/>
      <point x="165" y="945"/>
      <point x="199" y="911"/>
    </contour>
  </outline>
</glyph>
<glyph name="quoteright" format="1">
  <advance width="714"/>
  <unicode hex="2019"/>
  <outline>
    <contour>
      <point x="231" y="917" type="curve" smooth="yes"/>
      <point x="369" y="940"/>
      <point x="500" y="1076"/>
      <point x="500" y="1313" type="curve" smooth="yes"/>
      <point x="500" y="1458" type="line" smooth="yes"/>
      <point x="500" y="1501"/>
      <point x="466" y="1535"/>
      <point x="423" y="1535" type="curve" smooth="yes"/>
      <point x="225" y="1535" type="line" smooth="yes"/>
      <point x="182" y="1535"/>
      <point x="165" y="1514"/>
      <point x="165" y="1471" type="curve" smooth="yes"/>
      <point x="165" y="1268" type="line" smooth="yes"/>
      <point x="165" y="1230"/>
      <point x="187" y="1218"/>
      <point x="225" y="1218" type="curve" smooth="yes"/>
      <point x="310" y="1218" type="line" smooth="yes"/>
      <point x="325" y="1218"/>
      <point x="327" y="1207"/>
      <point x="327" y="1191" type="curve" smooth="yes"/>
      <point x="327" y="1167"/>
      <point x="295" y="1090"/>
      <point x="226" y="1047" type="curve" smooth="yes"/>
      <point x="183" y="1020"/>
      <point x="165" y="1026"/>
      <point x="165" y="972" type="curve" smooth="yes"/>
      <point x="165" y="962" type="line" smooth="yes"/>
      <point x="165" y="926"/>
      <point x="196" y="911"/>
    </contour>
  </outline>
</glyph>
<glyph name="fraction" format="1">
  <advance width="1512"/>
  <unicode hex="2044"/>
  <outline>
    <contour>
      <point x="275" y="-205" type="line" smooth="yes"/>
      <point x="297" y="-205"/>
      <point x="319" y="-192"/>
      <point x="328" y="-172" type="curve" smooth="yes"/>
      <point x="1209" y="1614" type="line" smooth="yes"/>
      <point x="1216" y="1629"/>
      <point x="1205" y="1647"/>
      <point x="1188" y="1647" type="curve" smooth="yes"/>
      <point x="1058" y="1647" type="line" smooth="yes"/>
      <point x="1036" y="1647"/>
      <point x="1014" y="1634"/>
      <point x="1005" y="1614" type="curve" smooth="yes"/>
      <point x="124" y="-172" type="line" smooth="yes"/>
      <point x="117" y="-187"/>
      <point x="128" y="-205"/>
      <point x="145" y="-205" type="curve" smooth="yes"/>
    </contour>
  </outline>
</glyph>
<glyph name=".notdef" format="1">
  <advance width="1024"/>
  <outline>
    <contour>
      <point x="204" y="-197" type="line"/>
      <point x="204" y="1373" type="line"/>
      <point x="820" y="1373" type="line"/>
      <point x="820" y="-197" type="line"/>
    </contour>
    <contour>
      <point x="102" y="-299" type="line"/>
      <point x="922" y="-299" type="line"/>
      <point x="922" y="1475" type="line"/>
      <point x="102" y="1475" type="line"/>
    </contour>
  </outline>
</glyph>
